<?xml version="1.0" encoding="UTF-8" standalone="no"?>
<svg
   xmlns:dc="http://purl.org/dc/elements/1.1/"
   xmlns:cc="http://creativecommons.org/ns#"
   xmlns:rdf="http://www.w3.org/1999/02/22-rdf-syntax-ns#"
   xmlns:svg="http://www.w3.org/2000/svg"
   xmlns="http://www.w3.org/2000/svg"
   xmlns:xlink="http://www.w3.org/1999/xlink"
   xmlns:sodipodi="http://sodipodi.sourceforge.net/DTD/sodipodi-0.dtd"
   xmlns:inkscape="http://www.inkscape.org/namespaces/inkscape"
   width="170mm"
   height="68mm"
   viewBox="0 0 170 68"
   version="1.1"
   id="svg12431"
   inkscape:version="1.0.2-2 (e86c870879, 2021-01-15)"
   sodipodi:docname="seminar_banner_1.svg">
  <defs
     id="defs12425">
    <clipPath
       clipPathUnits="userSpaceOnUse"
       id="clipPath12419">
      <rect
         style="fill:url(#linearGradient12423);fill-opacity:1;stroke:none;stroke-width:1.05973;stroke-linejoin:round;stroke-miterlimit:4;stroke-dasharray:3.17921, 1.05973;stroke-dashoffset:0;stop-color:#000000"
         id="rect12421"
         width="168.15839"
         height="66.939583"
         x="-111.95275"
         y="-67.392433"
         rx="10.485114" />
    </clipPath>
    <linearGradient
       inkscape:collect="always"
       xlink:href="#linearGradient2271"
       id="linearGradient2273"
       x1="1.3852453"
       y1="35.092884"
       x2="205.01631"
       y2="35.55463"
       gradientUnits="userSpaceOnUse"
       gradientTransform="matrix(0.80654727,0,0,1,-112.55876,-68.542502)" />
    <linearGradient
       inkscape:collect="always"
       id="linearGradient2271">
      <stop
         style="stop-color:#303b77;stop-opacity:1;"
         offset="0"
         id="stop2267" />
      <stop
         style="stop-color:#6ab0a2;stop-opacity:1"
         offset="1"
         id="stop2269" />
    </linearGradient>
    <filter
       inkscape:collect="always"
       style="color-interpolation-filters:sRGB"
       id="filter7595"
       x="-0.28616756"
       width="1.5723351"
       y="-0.23051898"
       height="1.461038">
      <feGaussianBlur
         inkscape:collect="always"
         stdDeviation="3.7457802"
         id="feGaussianBlur7597" />
    </filter>
    <rect
       x="61.243107"
       y="11.355492"
       width="88.360847"
       height="43.360935"
       id="rect5397" />
    <rect
       x="61.243107"
       y="11.355492"
       width="88.360847"
       height="43.360935"
       id="rect13011" />
    <filter
       inkscape:collect="always"
       style="color-interpolation-filters:sRGB"
       id="filter7992"
       x="-0.48485968"
       width="1.9697194"
       y="-0.44163495"
       height="1.8832699">
      <feGaussianBlur
         inkscape:collect="always"
         stdDeviation="1.8336458"
         id="feGaussianBlur7994" />
    </filter>
    <filter
       inkscape:collect="always"
       style="color-interpolation-filters:sRGB"
       id="filter7996"
       x="-0.31709439"
       width="1.6341888"
       y="-0.28773156"
       height="1.5754631">
      <feGaussianBlur
         inkscape:collect="always"
         stdDeviation="1.8336458"
         id="feGaussianBlur7998" />
    </filter>
  </defs>
  <sodipodi:namedview
     id="base"
     pagecolor="#ffffff"
     bordercolor="#666666"
     borderopacity="1.0"
     inkscape:pageopacity="0.0"
     inkscape:pageshadow="2"
     inkscape:zoom="0.63332632"
     inkscape:cx="384.07474"
     inkscape:cy="481.04197"
     inkscape:document-units="mm"
     inkscape:current-layer="layer1"
     inkscape:document-rotation="0"
     showgrid="false"
     inkscape:window-width="1267"
     inkscape:window-height="1198"
     inkscape:window-x="947"
     inkscape:window-y="142"
     inkscape:window-maximized="0" />
  <metadata
     id="metadata12428">
    <rdf:RDF>
      <cc:Work
         rdf:about="">
        <dc:format>image/svg+xml</dc:format>
        <dc:type
           rdf:resource="http://purl.org/dc/dcmitype/StillImage" />
        <dc:title></dc:title>
      </cc:Work>
    </rdf:RDF>
  </metadata>
  <g
     inkscape:label="Layer 1"
     inkscape:groupmode="layer"
     id="layer1">
    <g
       id="g12417"
       clip-path="url(#clipPath12419)"
       transform="translate(113.15697,67.565469)">
      <rect
         style="fill:url(#linearGradient2273);fill-opacity:1;stroke:none;stroke-width:1.05973;stroke-linejoin:round;stroke-miterlimit:4;stroke-dasharray:3.1792, 1.05973;stroke-dashoffset:0;stop-color:#000000"
         id="rect847"
         width="168.15839"
         height="66.939583"
         x="-111.95275"
         y="-67.392433"
         rx="10.485114" />
      <path
         style="fill:#e17047;fill-opacity:1;stroke:none;stroke-width:0.264583px;stroke-linecap:butt;stroke-linejoin:miter;stroke-opacity:1;filter:url(#filter7595)"
         d="m 260.80243,4.123908 c -10.05478,6.12491 -13.46433,10.291472 -15.58234,22.774264 -0.28957,6.685043 7.19114,12.733519 9.86288,16.22414 L 276.62663,21.50911 C 271.3519,15.714043 272.1645,11.322802 260.80243,4.123908 Z"
         id="path4000"
         sodipodi:nodetypes="ccccc"
         transform="matrix(0.72146713,0,0,0.72146713,-281.57229,-66.025367)" />
      <path
         class="Angola"
         d="m -70.768915,-23.651546 0.07725,0.257485 -0.09012,0.399103 0.115867,0.386228 -0.115867,0.308982 0.05151,0.283234 -1.506293,-0.01287 -0.102997,2.639225 0.463478,0.669462 0.46347,0.514971 -1.33892,0.33473 -1.738029,-0.115868 -0.489219,-0.386228 -2.922462,0.02575 -0.102989,0.06437 -0.42485,-0.373353 -0.463478,-0.02575 -0.437721,0.141616 -0.34761,0.154492 -0.06436,-0.514971 0.115867,-0.733833 0.257485,-0.759582 0.0386,-0.347605 0.244606,-0.746708 0.180245,-0.334731 0.42485,-0.540719 0.244606,-0.373354 0.07725,-0.60509 -0.0386,-0.476348 -0.205986,-0.296108 -0.193115,-0.502096 -0.167366,-0.489223 0.0386,-0.18024 0.218865,-0.321856 -0.205986,-0.798205 -0.154495,-0.553593 -0.360481,-0.527845 0.07725,-0.154491 0.296112,-0.115869 0.218857,0.01288 0.257484,-0.09012 2.150008,0.01287 0.167366,0.605091 0.205986,0.502096 0.167366,0.27036 0.270356,0.42485 0.489227,-0.06437 0.231735,-0.115869 0.399101,0.115869 0.115868,-0.205989 0.193115,-0.476347 0.450599,-0.03862 0.0386,-0.141617 h 0.373359 l -0.06435,0.296108 0.87545,-0.01287 0.01284,0.527845 0.141617,0.308983 -0.115868,0.502096 0.05151,0.514971 0.231735,0.308982 -0.05151,0.978445 0.180236,-0.07725 0.308983,0.02575 0.4506,-0.128742 z"
         id="path850-33"
         style="fill:#ececec;fill-opacity:1;stroke:#000000;stroke-width:0.0257485;stroke-linecap:round;stroke-linejoin:round" />
      <path
         d="m -68.181236,-37.01503 0.450599,0.682336 0.334732,0.102994 0.193115,-0.141617 0.334725,0.0515 0.399108,-0.167366 0.180237,0.347605 0.656586,0.553594 -0.0386,0.96557 0.296105,0.115869 -0.244606,0.283233 -0.270363,0.231737 -0.283234,0.424851 -0.154487,0.386228 -0.0386,0.656587 -0.167366,0.321857 -0.01284,0.617965 -0.205986,0.231737 -0.02576,0.489222 -0.102997,0.06437 -0.07725,0.463473 0.180245,0.373354 0.01284,0.128743 -0.154488,1.326049 0.193108,0.463474 -0.128739,0.347605 0.231736,0.592216 0.437728,0.4506 0.09012,0.450599 0.205986,0.218862 -0.0386,0.141617 -0.115868,-0.03862 -0.991317,0.141617 -0.193115,0.102994 -0.218864,0.527845 0.154487,0.360479 -0.141616,0.978444 -0.115868,0.823953 0.193115,0.154492 0.502098,0.321856 0.205986,-0.154491 0.02576,0.888324 h -0.553596 l -0.283233,-0.450599 -0.257485,-0.360479 -0.553589,-0.115868 -0.154495,-0.424851 -0.450599,0.257485 -0.566467,-0.115869 -0.244614,-0.373353 -0.450592,-0.07725 -0.34761,0.01288 -0.0386,-0.257485 -0.244613,-0.01287 -0.334732,-0.0515 -0.450599,0.128742 -0.308983,-0.02575 -0.180237,0.07725 0.05151,-0.978445 -0.231736,-0.308982 -0.05151,-0.514971 0.115867,-0.502096 -0.141616,-0.308983 -0.01284,-0.527845 -0.875449,0.01287 0.06435,-0.296108 h -0.373359 l -0.0386,0.141617 -0.4506,0.03862 -0.193115,0.476347 -0.115868,0.205989 -0.399101,-0.115869 -0.231735,0.115869 -0.489227,0.06437 -0.270355,-0.42485 -0.167366,-0.27036 -0.205986,-0.502096 -0.167366,-0.605091 -2.150008,-0.01287 -0.257485,0.09012 -0.218857,-0.01288 -0.296112,0.115869 -0.102996,-0.257485 0.180244,-0.09012 0.02576,-0.36048 0.128739,-0.205988 0.257484,-0.18024 0.193115,0.09012 0.257485,-0.321857 0.399108,0.01287 0.0386,0.231737 0.270355,0.141617 0.437729,-0.51497 0.42485,-0.399103 0.180237,-0.27036 -0.01284,-0.682336 0.321853,-0.798204 0.334732,-0.424851 0.476349,-0.399102 0.09012,-0.257486 0.01284,-0.308982 0.115867,-0.283234 -0.0386,-0.476348 0.09012,-0.733833 0.141617,-0.514971 0.218857,-0.437725 0.0386,-0.502096 0.06435,-0.579342 0.283234,-0.411976 0.38623,-0.27036 0.605087,0.283233 0.463478,0.308983 0.52784,0.07725 0.553596,0.167365 0.205986,-0.502096 0.102997,-0.06437 0.334732,0.07724 0.81108,-0.411976 0.283234,0.180239 0.231735,-0.02575 0.115868,-0.205988 0.270362,-0.06437 0.540718,0.09012 0.476349,0.01288 z"
         id="CD-9"
         name="Democratic Republic of the Congo"
         style="fill:#ececec;fill-opacity:1;stroke:#000000;stroke-width:0.0257485;stroke-linecap:round;stroke-linejoin:round" />
      <path
         class="Cape Verde"
         d="m -105.96721,-44.958452 -0.0258,0.03862 -0.0258,-0.02575 v -0.03862 l 0.0386,-0.01287 z"
         id="path1271-0"
         style="fill:#ececec;stroke:#000000;stroke-width:0.0257485;stroke-linecap:round;stroke-linejoin:round" />
      <path
         class="Cape Verde"
         d="m -105.7226,-44.945578 -0.0258,0.01287 -0.0515,-0.01287 -0.0386,-0.03862 -0.0128,-0.03862 0.0258,-0.0515 0.0644,-0.03862 h 0.0515 l 0.0258,0.09012 -0.0128,0.0515 z"
         id="path1273-7"
         style="fill:#ececec;stroke:#000000;stroke-width:0.0257485;stroke-linecap:round;stroke-linejoin:round" />
      <path
         class="Cape Verde"
         d="m -105.272,-45.34468 0.0258,0.01287 v 0.02575 l 0.0258,0.02575 0.0515,0.06437 h 0.0258 l 0.0258,0.03862 0.0258,0.06437 0.0258,0.02575 -0.0386,0.06437 -0.0386,0.01287 -0.0644,-0.01287 -0.0386,-0.01288 -0.0386,-0.03862 v -0.02575 l -0.0258,-0.01287 -0.0129,-0.0515 0.0129,-0.02575 v -0.03862 l 0.0258,-0.0515 -0.0258,-0.06437 z"
         id="path1275-7"
         style="fill:#ececec;stroke:#000000;stroke-width:0.0257485;stroke-linecap:round;stroke-linejoin:round" />
      <path
         class="Cape Verde"
         d="m -104.8729,-45.34468 0.0386,0.01287 0.0128,0.07725 -0.0128,0.0515 -0.0515,0.02575 -0.0515,-0.0515 0.0258,-0.0515 -0.0129,-0.02575 z"
         id="path1277-9"
         style="fill:#ececec;stroke:#000000;stroke-width:0.0257485;stroke-linecap:round;stroke-linejoin:round" />
      <path
         class="Cape Verde"
         d="m -104.61541,-46.078513 0.0386,-0.02575 0.0644,0.02575 0.0128,0.02575 v 0.09012 l -0.0515,0.03862 -0.0386,0.02575 h -0.0386 l -0.0644,-0.02575 v -0.06437 l 0.0258,-0.02575 v -0.07724 l 0.0128,-0.01287 z"
         id="path1279-5"
         style="fill:#ececec;stroke:#000000;stroke-width:0.0257485;stroke-linecap:round;stroke-linejoin:round" />
      <path
         class="Cape Verde"
         d="m -105.64535,-46.438993 0.0515,-0.01288 0.0386,0.02575 h 0.0515 l 0.0386,0.02575 0.0129,0.02575 h -0.0644 l -0.0901,-0.03862 -0.0258,0.01287 -0.0386,0.07725 -0.0386,-0.07725 -0.0128,-0.01287 -0.0128,-0.0515 0.0386,-0.01287 z"
         id="path1281-3"
         style="fill:#ececec;stroke:#000000;stroke-width:0.0257485;stroke-linecap:round;stroke-linejoin:round" />
      <path
         class="Cape Verde"
         d="m -104.64116,-46.503364 0.0129,0.01288 -0.0129,0.07725 -0.0258,0.01287 v -0.06437 l -0.0258,-0.03862 v -0.03862 l -0.0129,-0.03862 0.0515,-0.03862 0.0258,0.02575 -0.0129,0.07725 z"
         id="path1283-1"
         style="fill:#ececec;stroke:#000000;stroke-width:0.0257485;stroke-linecap:round;stroke-linejoin:round" />
      <g
         id="g5385"
         style="fill:#ececec;fill-opacity:1"
         transform="translate(-108.99994,-68.542502)">
        <path
           class="Angola"
           d="m 29.746832,40.642453 -0.193108,-0.617965 0.296105,-0.36048 0.218864,-0.141617 0.270355,0.283234 -0.257484,0.18024 -0.128739,0.205988 -0.02576,0.36048 z"
           id="path852-3"
           style="opacity:1;fill:#ececec;fill-opacity:1;stroke:#000000;stroke-width:0.0257485;stroke-linecap:round;stroke-linejoin:round" />
        <path
           class="Azerbaijan"
           d="M 52.109434,3.8478021 51.620215,3.7319272 51.208235,3.3585752 51.053748,3.0367215 51.182486,3.0238072 51.4271,3.2426715 h 0.296104 l 0.02576,0.1287458 z"
           id="path866-4"
           style="opacity:1;fill:#ececec;fill-opacity:1;stroke:#000000;stroke-width:0.0257485;stroke-linecap:round;stroke-linejoin:round" />
        <path
           d="m 42.569604,39.535265 -0.07725,0.01287 v -0.03862 l -0.257485,-0.78533 -0.0014,-0.0077 -0.01162,-0.133892 -0.180244,-0.373354 0.450599,0.06437 0.218865,-0.476348 0.399101,0.0515 0.0386,0.321856 0.154488,0.193114 v 0.27036 l -0.180237,0.167365 -0.296112,0.437725 z"
           id="BI-3"
           name="Burundi"
           style="opacity:1;fill:#ececec;fill-opacity:1;stroke:#000000;stroke-width:0.0257485;stroke-linecap:round;stroke-linejoin:round" />
        <path
           d="m 23.489944,26.223274 -0.02576,0.27036 0.167366,0.489222 -0.141617,0.334731 0.07724,0.218862 -0.360473,0.514971 -0.218865,0.257486 -0.141616,0.51497 0.02576,0.527845 -0.0386,1.326049 -0.605087,0.102995 -0.180244,-0.566468 0.0386,-1.905391 -0.154494,-0.167366 -0.02576,-0.411977 -0.257484,-0.283233 -0.218857,-0.244612 0.09012,-0.437725 0.257485,-0.09012 0.141616,-0.360479 0.360481,-0.07724 0.154488,-0.244612 0.244614,-0.244611 h 0.257484 z"
           id="BJ-6"
           name="Benin"
           style="opacity:1;fill:#ececec;fill-opacity:1;stroke:#000000;stroke-width:0.0257485;stroke-linecap:round;stroke-linejoin:round" />
        <path
           d="m 21.146828,23.519678 -0.06435,0.399102 0.102997,0.373354 0.399101,0.540719 0.02576,0.399103 0.836829,0.193113 -0.01291,0.566468 -0.154488,0.244612 -0.360481,0.07724 -0.141616,0.360479 -0.257485,0.09012 -0.630844,-0.01288 -0.334724,-0.06437 -0.231743,0.128742 -0.321853,-0.06437 -1.26168,0.03862 -0.02576,0.476348 0.102997,0.617965 -0.502098,-0.205989 -0.334732,0.02575 -0.257484,0.205988 -0.321854,-0.167365 -0.128746,-0.283235 -0.321853,-0.180239 -0.05151,-0.476348 0.205986,-0.347606 -0.02576,-0.283233 0.579346,-0.682336 0.115867,-0.566468 0.193116,-0.205988 0.347602,0.115868 0.308983,-0.167365 0.102997,-0.218863 0.553589,-0.360479 0.141616,-0.257486 0.682342,-0.347605 0.399102,-0.115868 0.180237,0.154491 z"
           id="BF-5"
           name="Burkina Faso"
           style="opacity:1;fill:#ececec;fill-opacity:1;stroke:#000000;stroke-width:0.0257485;stroke-linecap:round;stroke-linejoin:round" />
        <path
           d="m 39.054927,50.517015 0.244613,0.656587 0.141617,0.154492 0.205986,0.476347 0.785331,0.901199 0.296112,0.09012 -0.01284,0.296108 0.193115,0.527845 0.553596,0.128743 0.437722,0.373353 -1.042816,0.605091 -0.669457,0.617965 -0.257491,0.553593 -0.231736,0.308983 -0.38623,0.06437 -0.154488,0.399102 -0.07725,0.257485 -0.463471,0.18024 -0.579345,-0.03862 -0.321854,-0.231738 -0.296111,-0.09012 -0.360474,0.180239 -0.193115,0.399103 -0.34761,0.244611 -0.360474,0.373354 -0.514976,0.09012 -0.141617,-0.296108 0.07725,-0.502096 -0.386231,-0.78533 -0.180237,-0.128743 0.07725,-2.407488 0.708084,-0.02575 0.102996,-2.948207 0.540718,-0.02575 1.120056,-0.296109 0.257492,0.347605 0.476342,-0.321856 h 0.218864 l 0.411979,-0.193114 z"
           id="BW-2"
           name="Botswana"
           style="opacity:1;fill:#ececec;fill-opacity:1;stroke:#000000;stroke-width:0.0257485;stroke-linecap:round;stroke-linejoin:round" />
        <path
           d="m 38.243853,28.733756 0.502091,0.321857 0.399108,0.334731 0.01284,0.270359 0.502098,0.424851 0.308983,0.360479 0.180237,0.489223 0.553596,0.33473 0.115868,0.257486 -0.231735,0.09012 -0.476349,-0.01288 -0.540718,-0.09012 -0.270363,0.06437 -0.115867,0.205989 -0.231736,0.02575 -0.283233,-0.18024 -0.811081,0.411976 -0.334732,-0.07725 -0.102996,0.06437 -0.205986,0.502097 -0.553596,-0.167366 -0.52784,-0.07725 -0.463478,-0.308982 -0.605087,-0.283234 -0.38623,0.27036 -0.283234,0.411976 -0.06435,0.579342 -0.463478,-0.03862 -0.50209,-0.141618 -0.424851,0.437726 -0.38623,0.772455 -0.07725,-0.24461 -0.0386,-0.373354 -0.334732,-0.27036 -0.270362,-0.42485 -0.06436,-0.296108 -0.347603,-0.437725 0.06435,-0.244612 -0.07725,-0.347605 0.05151,-0.643713 0.180237,-0.141617 0.360481,-0.836827 0.592216,-0.06437 0.128746,-0.218863 0.128739,0.02575 0.180244,0.18024 0.91407,-0.308982 0.308983,-0.321857 0.373352,-0.296108 -0.07724,-0.283234 0.205987,-0.07725 0.708083,0.0515 0.669464,-0.386228 0.514969,-0.901199 0.360481,-0.334731 0.463471,-0.141617 0.09012,0.347605 0.42485,0.514971 v 0.347605 l -0.102989,0.334732 0.05151,0.257485 0.244606,0.244611 z"
           id="CF-7"
           name="Central African Republic"
           style="opacity:1;fill:#ececec;fill-opacity:1;stroke:#000000;stroke-width:0.0257485;stroke-linecap:round;stroke-linejoin:round" />
        <path
           d="m 16.949816,27.278964 0.321854,0.180239 0.128745,0.283235 0.321854,0.167365 0.257485,-0.205988 0.334731,-0.02575 0.502098,0.205988 0.193115,1.184432 -0.308982,0.682337 -0.193115,0.939821 0.308982,0.708085 -0.02576,0.334731 h -0.334732 l -0.502098,-0.154492 h -0.476348 l -0.862572,0.154492 -0.502098,0.231736 -0.720955,0.308982 -0.141624,-0.02575 0.05151,-0.682336 0.07725,-0.102994 -0.02576,-0.321856 -0.308983,-0.347606 -0.231735,-0.0515 -0.205986,-0.231737 0.154488,-0.373354 -0.06436,-0.399102 0.02576,-0.231737 h 0.115868 l 0.05151,-0.360479 -0.05151,-0.167366 0.06436,-0.115868 0.270362,-0.09012 -0.180244,-0.669462 -0.167366,-0.334731 0.06436,-0.283233 0.141617,-0.06437 0.102989,-0.07725 0.193115,0.128743 h 0.566468 l 0.128745,-0.231736 0.128739,0.01287 0.205993,-0.09012 0.115868,0.347605 0.167366,-0.102994 z"
           id="CI-0"
           name="Côte d'Ivoire"
           style="opacity:1;fill:#ececec;fill-opacity:1;stroke:#000000;stroke-width:0.0257485;stroke-linecap:round;stroke-linejoin:round" />
        <path
           d="m 31.99983,29.725075 -0.360482,0.836827 -0.180236,0.141617 -0.05151,0.643713 0.07725,0.347605 -0.06436,0.244612 0.347603,0.437725 0.06435,0.296108 0.270363,0.42485 0.334732,0.27036 0.0386,0.373354 0.07725,0.244611 -0.05151,0.437725 -0.579338,-0.193114 -0.592217,-0.218863 -0.914077,-0.02575 -0.09012,-0.0515 -0.437729,0.102995 -0.437721,-0.102995 -0.347603,0.0515 -1.197311,-0.01287 0.115868,-0.656588 -0.296105,-0.553593 -0.334732,-0.128743 -0.141616,-0.373354 -0.193115,-0.115868 0.01284,-0.231737 0.180244,-0.592216 0.347603,-0.798204 h 0.205986 l 0.437728,-0.489223 0.270363,-0.01287 0.411972,0.347605 0.502098,-0.283234 0.06435,-0.347605 0.167366,-0.334731 0.102996,-0.411976 0.386231,-0.334731 0.141616,-0.579343 0.154488,-0.193113 0.102997,-0.424852 0.180237,-0.527844 0.605094,-0.643714 0.0386,-0.270359 0.07725,-0.154492 -0.296112,-0.321856 0.02576,-0.270359 0.193115,-0.03862 0.296104,0.527845 0.06436,0.540719 -0.02576,0.553593 0.411972,0.746708 H 31.70359 l -0.205993,0.0515 -0.334725,-0.07725 -0.154495,0.386228 0.437728,0.489223 0.321854,0.141617 0.102997,0.334731 0.231735,0.566468 z"
           id="CM-7"
           name="Cameroon"
           style="opacity:1;fill:#ececec;fill-opacity:1;stroke:#000000;stroke-width:0.0257485;stroke-linecap:round;stroke-linejoin:round" />
        <path
           d="m 34.330075,32.956515 -0.0386,0.502097 -0.218857,0.437725 -0.141617,0.514971 -0.09012,0.733833 0.0386,0.476348 -0.115867,0.283233 -0.01284,0.308983 -0.09012,0.257485 -0.476349,0.399103 -0.334732,0.42485 -0.321853,0.798205 0.01284,0.682336 -0.180237,0.270359 -0.42485,0.399103 -0.437729,0.51497 -0.270355,-0.141616 -0.0386,-0.231737 -0.399108,-0.01287 -0.257485,0.321856 -0.193115,-0.09012 -0.270355,-0.283234 -0.218864,0.141617 -0.296105,0.360479 -0.592216,-0.875449 0.553589,-0.463475 -0.270356,-0.540718 0.257485,-0.205988 0.489219,-0.102995 0.05151,-0.373353 0.399101,0.399101 0.643715,0.03862 0.218864,-0.386228 0.09012,-0.553594 -0.07725,-0.643714 -0.347603,-0.489221 0.321854,-0.96557 -0.180237,-0.154492 -0.540718,0.06437 -0.205993,-0.424851 0.05151,-0.36048 0.914077,0.02575 0.592216,0.218863 0.579338,0.193114 0.05151,-0.437725 0.38623,-0.772456 0.424851,-0.437725 0.50209,0.141617 z"
           id="CG-9"
           name="Republic of Congo"
           style="opacity:1;fill:#ececec;fill-opacity:1;stroke:#000000;stroke-width:0.0257485;stroke-linecap:round;stroke-linejoin:round" />
        <path
           d="m 52.173804,26.377765 -0.244607,0.4506 -0.167366,-0.154492 -0.167365,0.06437 -0.41198,-0.01287 -0.02576,-0.257485 -0.06436,-0.231737 0.231735,-0.386228 0.244614,-0.36048 0.308982,0.07725 0.218865,-0.205989 0.180236,0.257486 -0.01284,0.334731 -0.399108,0.205988 z"
           id="DJ-2"
           name="Djibouti"
           style="opacity:1;fill:#ececec;fill-opacity:1;stroke:#000000;stroke-width:0.0257485;stroke-linecap:round;stroke-linejoin:round" />
        <path
           d="m 26.618385,5.3154682 -0.128739,0.4248504 0.128739,0.7853314 -0.141617,0.6823347 -0.411972,0.4634705 0.07725,0.6179655 0.579338,0.5020978 0.01284,0.1931151 0.437722,0.3347319 0.334732,1.4805375 0.244613,0.733833 0.05151,0.38623 -0.10299,0.669464 0.05151,0.386223 -0.07725,0.450599 0.07725,0.514969 -0.283234,0.34761 0.437722,0.605087 0.02576,0.34761 0.270363,0.463471 0.321853,-0.154495 0.579346,0.38623 0.321853,0.514969 -2.420363,1.583541 -2.059882,1.622154 -1.004189,0.360481 -0.79821,0.09012 -0.01284,-0.527847 -0.334732,-0.141616 -0.450599,-0.231736 -0.167366,-0.38623 -2.407485,-1.802391 -2.394615,-1.802398 -2.639227,-2.008391 0.01291,-0.154488 0.01284,-0.05151 0.01291,-0.978446 1.145805,-0.617958 0.695213,-0.128746 0.579339,-0.218864 0.270362,-0.411973 0.823952,-0.32186 0.0386,-0.6179659 0.399101,-0.07724 L 19.048362,9.3322273 19.962439,9.1906105 20.091178,8.8687568 19.910941,8.6885127 19.666327,7.8130629 19.627727,7.310965 19.383114,6.7831252 20.039699,6.3325257 20.78641,6.1909089 21.211261,5.8561771 21.867846,5.5986926 23.02653,5.4570759 l 1.132934,-0.064355 0.34761,0.1158676 0.630837,-0.3218537 0.733833,-0.012842 0.283233,0.1931079 z"
           id="DZ-1"
           name="Algeria"
           style="opacity:1;fill:#ececec;fill-opacity:1;stroke:#000000;stroke-width:0.0257485;stroke-linecap:round;stroke-linejoin:round" />
        <path
           d="m 44.783975,10.053199 0.502097,1.210174 0.09012,0.205993 -0.167359,0.334732 -0.09013,0.617966 -0.154487,0.437721 -0.154495,0.141617 -0.257485,-0.270356 -0.347603,-0.360481 -0.605094,-1.184432 -0.06435,0.07724 0.360481,0.862579 0.502098,0.83683 0.630836,1.287422 0.296112,0.450599 0.257485,0.463478 0.695205,0.91407 -0.128738,0.141617 0.05151,0.540718 0.87545,0.746711 0.141617,0.167366 h -2.845214 -2.767966 -2.870963 l -0.128746,-3.0512 -0.167366,-2.935332 -0.257484,-0.669464 0.141616,-0.502098 -0.128738,-0.360481 0.218864,-0.3991012 0.926941,-0.012842 0.695213,0.218857 0.708084,0.2446132 0.334732,0.128746 0.514969,-0.257484 0.270362,-0.2317428 0.605088,-0.07724 0.502097,0.1029894 0.231736,0.4119794 0.141616,-0.270363 0.566468,0.193115 0.553596,0.05151 z"
           id="EG-0"
           name="Egypt"
           style="opacity:1;fill:#ececec;fill-opacity:1;stroke:#000000;stroke-width:0.0257485;stroke-linecap:round;stroke-linejoin:round" />
        <path
           d="m 52.096563,25.360698 -0.218864,0.205989 -0.308983,-0.07725 -0.257484,-0.27036 -0.321861,-0.476348 -0.334725,-0.270359 -0.193115,-0.283234 -0.643714,-0.33473 -0.502098,-0.01288 -0.180237,-0.167365 -0.411979,0.193114 -0.463471,-0.373354 -0.193115,0.617965 -0.849701,-0.18024 -0.09012,-0.321856 0.257484,-1.223056 0.0386,-0.540719 0.218864,-0.257486 0.514969,-0.141616 0.347603,-0.463471 0.463477,0.952693 0.244607,0.759582 0.411979,0.399102 1.029945,0.78533 0.42485,0.463474 0.411972,0.489222 0.231735,0.283234 z"
           id="ER-1"
           name="Eritrea"
           style="opacity:1;fill:#ececec;fill-opacity:1;stroke:#000000;stroke-width:0.0257485;stroke-linecap:round;stroke-linejoin:round" />
        <path
           d="m 49.315719,23.841535 0.502098,0.01288 0.643714,0.334731 0.193115,0.283234 0.334725,0.270359 0.321861,0.476348 0.257484,0.270359 -0.244613,0.36048 -0.231735,0.386228 0.06435,0.231737 0.02576,0.257485 0.411979,0.01287 0.167366,-0.06437 0.167366,0.154491 -0.154495,0.283234 0.283234,0.463474 0.283233,0.399102 0.283234,0.296108 2.407492,0.978444 0.617966,-0.01288 -2.008391,2.484733 -0.93982,0.03862 -0.643714,0.579341 -0.463471,0.01288 -0.193115,0.27036 H 50.899244 L 50.60314,32.338549 49.933676,32.686154 49.72769,33.03376 49.238463,32.95651 49.071097,32.86639 48.903738,32.89214 48.671996,32.87927 47.745048,32.184059 H 47.23008 l -0.244606,-0.270359 -0.01284,-0.463474 -0.373352,-0.141617 -0.4506,-0.901198 -0.334732,-0.193114 -0.128746,-0.334732 -0.386223,-0.399102 -0.450599,-0.06437 0.244606,-0.463473 0.38623,-0.02575 0.102997,-0.244612 -0.02576,-0.643713 v -0.102994 l 0.193115,-0.862576 0.334732,-0.231737 0.06435,-0.33473 0.296105,-0.643714 0.42485,-0.399102 0.257492,-0.823953 0.09012,-0.708085 0.849701,0.18024 0.193115,-0.617965 0.463471,0.373354 0.411979,-0.193114 z"
           id="ET-5"
           name="Ethiopia"
           style="opacity:1;fill:#ececec;fill-opacity:1;stroke:#000000;stroke-width:0.0257485;stroke-linecap:round;stroke-linejoin:round" />
        <path
           d="m 30.416296,33.986457 -0.05151,0.360479 0.205993,0.424851 0.540718,-0.06437 0.180237,0.154491 -0.321854,0.96557 0.347603,0.489222 0.07725,0.643714 -0.09012,0.553593 -0.218864,0.386228 -0.643715,-0.03862 -0.399101,-0.399102 -0.05151,0.373353 -0.48922,0.102995 -0.257485,0.205988 0.270356,0.540719 -0.553589,0.463474 -0.746711,-0.836828 -0.476349,-0.682336 -0.4506,-0.849701 0.02576,-0.283234 0.167366,-0.257486 0.167366,-0.60509 0.154487,-0.617965 0.244614,-0.03862 h 1.055694 v -0.991319 l 0.347603,-0.0515 0.437721,0.102995 0.437729,-0.102995 z"
           id="GA-9"
           name="Gabon"
           style="opacity:1;fill:#ececec;fill-opacity:1;stroke:#000000;stroke-width:0.0257485;stroke-linecap:round;stroke-linejoin:round" />
        <path
           d="m 20.889337,26.751119 -0.05151,0.257486 0.296104,0.42485 v 0.605091 l 0.07725,0.643713 0.180237,0.308983 -0.167366,0.733833 0.06436,0.411976 0.193108,0.527845 0.167366,0.296108 -1.145806,0.476348 -0.411979,0.283234 -0.656586,0.244611 -0.643714,-0.231737 0.02576,-0.334731 -0.308983,-0.708084 0.193116,-0.939822 0.308982,-0.682336 -0.193115,-1.184432 -0.102996,-0.617965 0.02576,-0.476348 1.26168,-0.03862 0.321854,0.06437 0.231742,-0.128742 z"
           id="GH-3"
           name="Ghana"
           style="opacity:1;fill:#ececec;fill-opacity:1;stroke:#000000;stroke-width:0.0257485;stroke-linecap:round;stroke-linejoin:round" />
        <path
           d="m 12.521068,25.566687 0.0386,0.308982 h 0.115867 l 0.193116,-0.115868 0.115867,0.02575 0.205986,0.218863 0.308983,0.06437 0.193115,-0.18024 0.244614,-0.115868 0.167365,-0.115869 0.141617,0.02575 0.167366,0.180239 0.07725,0.231737 0.296104,0.347605 -0.141617,0.205989 -0.0386,0.270359 0.154488,-0.07725 0.09012,0.09012 -0.0386,0.244611 0.218864,0.244612 -0.141617,0.06437 -0.06436,0.283234 0.167366,0.334731 0.180244,0.669461 -0.270362,0.09012 -0.06436,0.115869 0.05151,0.167365 -0.05151,0.360479 h -0.115868 l -0.205993,-0.02575 -0.141617,0.334731 H 14.16902 l -0.141617,-0.180239 0.05151,-0.334732 -0.308983,-0.502096 -0.180237,0.09012 -0.167366,0.02575 -0.193115,0.03862 0.01284,-0.296108 -0.115868,-0.218863 0.02576,-0.24461 -0.154487,-0.347606 -0.205994,-0.296108 h -0.579338 l -0.167366,0.154491 -0.205986,0.02575 -0.128746,0.18024 -0.07725,0.218863 -0.399101,0.373353 -0.308983,-0.489221 -0.283234,-0.321857 -0.180237,-0.115869 -0.180244,-0.167365 -0.07724,-0.36048 -0.102997,-0.18024 -0.2188639,-0.141616 0.3347319,-0.399102 0.218864,0.01287 0.193115,-0.128743 0.154488,-0.01287 0.115868,-0.102993 -0.05151,-0.27036 0.07725,-0.09012 0.01291,-0.283234 0.347603,0.01288 0.527847,0.193114 0.154487,-0.01287 0.05151,-0.09012 0.399101,0.06437 z"
           id="GN-8"
           name="Guinea"
           style="opacity:1;fill:#ececec;fill-opacity:1;stroke:#000000;stroke-width:0.0257485;stroke-linecap:round;stroke-linejoin:round" />
        <path
           d="m 8.6716588,24.987344 0.1029967,-0.373353 0.7853314,-0.01288 0.1673659,-0.205988 0.2317352,-0.01287 0.283234,0.205988 h 0.218864 l 0.244606,-0.128743 0.141617,0.231737 -0.321854,0.193114 -0.308983,-0.02575 L 9.9075897,24.691236 9.6372271,24.88435 H 9.5084885 l -0.1802369,0.115868 z"
           id="GM-8"
           name="The Gambia"
           style="opacity:1;fill:#ececec;fill-opacity:1;stroke:#000000;stroke-width:0.0257485;stroke-linecap:round;stroke-linejoin:round" />
        <path
           d="m 10.937535,25.450818 -0.01291,0.283234 -0.07725,0.09012 0.05151,0.27036 -0.115868,0.102994 -0.154488,0.01287 -0.193115,0.128743 -0.218864,-0.01287 -0.3347321,0.399102 -0.373352,-0.334731 -0.3089827,-0.06437 -0.167366,-0.231737 0.012842,-0.128743 -0.218857,-0.167365 -0.051513,-0.18024 0.3862302,-0.128743 0.2446063,0.02575 0.1931151,-0.102993 z"
           id="GW-8"
           name="Guinea-Bissau"
           style="opacity:1;fill:#ececec;fill-opacity:1;stroke:#000000;stroke-width:0.0257485;stroke-linecap:round;stroke-linejoin:round" />
        <path
           d="m 29.103125,33.986457 v 0.991318 h -1.055694 l -0.244614,0.03862 -0.141617,-0.115869 0.244614,-0.926946 z"
           id="GQ-2"
           name="Equatorial Guinea"
           style="opacity:1;fill:#ececec;fill-opacity:1;stroke:#000000;stroke-width:0.0257485;stroke-linecap:round;stroke-linejoin:round" />
        <path
           class="Greece"
           d="m 37.136661,6.3454058 0.399108,0.2832336 0.52784,-0.051513 0.514969,0.051513 v 0.154495 l 0.360481,-0.1029967 -0.06435,0.2446134 -0.978446,0.064355 -0.01284,-0.1287458 -0.849701,-0.1673659 z"
           id="path983-3"
           style="opacity:1;fill:#ececec;fill-opacity:1;stroke:#000000;stroke-width:0.0257485;stroke-linecap:round;stroke-linejoin:round" />
        <path
           d="m 51.40135,5.1352241 0.605095,0.9784465 0.48922,0.2574844 0.115867,0.4763487 -0.296112,0.2832335 -0.06435,0.6437146 0.592216,0.7853314 0.914077,0.4634705 0.4506,0.6179655 -0.02576,0.6050868 h 0.218857 l 0.06436,0.437729 0.4506,0.437721 -0.424851,-0.0386 -0.476348,-0.07725 -0.424851,0.79821 -1.313178,-0.06435 -2.162879,-1.660774 -1.107185,-0.5793453 -0.87545,-0.2317352 -0.399101,-1.0041957 1.416167,-0.8625717 0.128746,-0.9913247 -0.154495,-0.6050873 0.34761,-0.205986 0.270356,-0.5149761 0.270362,-0.1287386 0.811081,0.1158677 0.270355,0.2059861 z"
           id="IQ-0"
           name="Iraq"
           style="opacity:1;fill:#ececec;fill-opacity:1;stroke:#000000;stroke-width:0.0257485;stroke-linecap:round;stroke-linejoin:round" />
        <path
           d="m 45.685174,8.35379 0.05151,0.3347318 -0.07725,0.1287459 h 0.01291 l -0.09012,0.2574844 -0.270363,-0.1029967 -0.09012,0.540718 0.193115,0.090126 -0.167366,0.1158676 -0.01284,0.218857 0.321861,-0.1029894 0.05151,0.3218534 -0.231742,1.313178 -0.09012,-0.205993 -0.502097,-1.210174 0.180244,-0.2703627 -0.05151,-0.051513 0.141617,-0.3862302 0.07725,-0.6179582 0.07725,-0.2188643 h 0.01284 0.231735 l 0.05151,-0.1416168 z"
           id="IL-0"
           name="Israel"
           style="opacity:1;fill:#ececec;fill-opacity:1;stroke:#000000;stroke-width:0.0257485;stroke-linecap:round;stroke-linejoin:round" />
        <path
           class="Italy"
           d="M 31.407613,4.2597742 31.188756,4.9163598 31.304624,5.1609732 31.188756,5.5858236 30.648031,5.2768409 30.300428,5.1867224 29.33486,4.774743 l 0.06436,-0.4248503 0.798202,0.077248 0.695213,-0.090118 z"
           id="path1026-2"
           style="opacity:1;fill:#ececec;fill-opacity:1;stroke:#000000;stroke-width:0.0257485;stroke-linecap:round;stroke-linejoin:round" />
        <path
           d="m 48.131286,9.2678672 -0.115867,0.1287386 -1.338921,0.4119793 0.772453,0.8368299 -0.205986,0.128738 -0.09013,0.283234 -0.52784,0.115868 -0.141617,0.296111 -0.270362,0.257485 -0.798203,-0.141617 -0.0386,-0.115868 0.231742,-1.313178 -0.05151,-0.3218537 0.07725,-0.2446134 -0.05151,-0.5149688 0.09012,-0.2574844 0.81108,0.3347318 1.248802,-0.888328 z"
           id="JO-9"
           name="Jordan"
           style="opacity:1;fill:#ececec;fill-opacity:1;stroke:#000000;stroke-width:0.0257485;stroke-linecap:round;stroke-linejoin:round" />
        <path
           d="m 51.40135,32.621785 -0.630836,0.926947 0.02576,3.012578 0.424851,0.682336 -0.514976,0.334731 -0.180237,0.347605 -0.283234,0.0515 -0.102996,0.592216 -0.244607,0.334731 -0.141616,0.54072 -0.296112,0.270359 -1.042816,-0.823953 -0.0386,-0.476348 -2.639228,-1.686529 0.05151,-0.605091 -0.180236,-0.321856 v -0.03862 l 0.205986,-0.334731 0.360481,-0.540719 0.270355,-0.605091 -0.334732,-0.952695 -0.09012,-0.411977 -0.347603,-0.579342 0.437721,-0.489222 0.489227,-0.540719 0.373352,0.141616 0.01284,0.463475 0.244606,0.270359 h 0.514969 l 0.926948,0.69521 0.231743,0.01287 0.167359,-0.02575 0.167366,0.09012 0.489226,0.07725 0.205986,-0.347606 0.669464,-0.347605 0.296105,0.283235 z"
           id="KE-3"
           name="Kenya"
           style="opacity:1;fill:#ececec;fill-opacity:1;stroke:#000000;stroke-width:0.0257485;stroke-linecap:round;stroke-linejoin:round" />
        <path
           d="m 54.491178,11.083136 0.193108,0.360481 -0.0386,0.193115 0.308983,0.617966 -0.502098,0.02576 -0.218864,-0.399108 -0.643708,-0.07724 0.424851,-0.798209 z"
           id="KW-0"
           name="Kuwait"
           style="opacity:1;fill:#ececec;fill-opacity:1;stroke:#000000;stroke-width:0.0257485;stroke-linecap:round;stroke-linejoin:round" />
        <path
           d="m 45.685174,8.35379 -0.180237,0.012842 -0.05151,0.1416168 H 45.221692 L 45.389058,7.825914 45.672291,7.2465687 v -0.025756 l 0.321854,0.038598 0.154495,0.3218537 -0.347603,0.3218537 z"
           id="LB-7"
           name="Lebanon"
           style="opacity:1;fill:#ececec;fill-opacity:1;stroke:#000000;stroke-width:0.0257485;stroke-linecap:round;stroke-linejoin:round" />
        <path
           d="m 14.722568,29.506212 -0.02576,0.231737 0.06435,0.399102 -0.154488,0.373354 0.205986,0.231736 0.231736,0.0515 0.308982,0.347606 0.02576,0.321856 -0.07725,0.102994 -0.05151,0.682336 -0.193107,0.01287 -0.746712,-0.399103 -0.669463,-0.630838 -0.617959,-0.4506 -0.489227,-0.527844 0.180245,-0.27036 0.0386,-0.244611 0.334732,-0.437725 0.334732,-0.386228 0.167366,-0.02575 0.180237,-0.09012 0.308982,0.502096 -0.05151,0.334731 0.141616,0.18024 h 0.205987 l 0.141616,-0.334731 z"
           id="LR-7"
           name="Liberia"
           style="opacity:1;fill:#ececec;fill-opacity:1;stroke:#000000;stroke-width:0.0257485;stroke-linecap:round;stroke-linejoin:round" />
        <path
           d="m 38.411219,9.7570868 -0.218864,0.3991012 0.128739,0.360481 -0.141617,0.502098 0.257484,0.669464 0.167366,2.935332 0.128746,3.0512 0.06435,1.647903 h -0.823952 v 0.34761 l -2.909583,-1.583541 -2.896712,-1.583534 -0.708084,0.4506 -0.48922,0.308983 -0.411979,-0.4506 -1.132934,-0.360481 -0.321854,-0.514969 -0.579345,-0.38623 -0.321854,0.154495 -0.270362,-0.463471 -0.02576,-0.34761 -0.437721,-0.605087 0.283233,-0.34761 -0.07725,-0.514969 0.07725,-0.450599 -0.05151,-0.386223 0.102989,-0.669464 -0.05151,-0.38623 -0.244613,-0.733833 0.334732,-0.180237 0.05151,-0.360481 -0.07725,-0.3347322 0.463471,-0.3218537 0.205993,-0.2703626 0.334732,-0.2317353 0.01284,-0.6308436 0.823951,0.2832335 0.296112,-0.07724 0.579338,0.1416168 0.939827,0.373352 0.360473,0.7338331 0.630844,0.154495 1.004189,0.347603 0.77246,0.411972 0.321854,-0.218857 0.321853,-0.37336 -0.205986,-0.6308358 0.193115,-0.4119793 0.476349,-0.386223 0.476349,-0.1029967 0.952697,0.1673659 0.257484,0.3604811 0.257485,0.012842 0.231735,0.1416168 0.695213,0.090126 z"
           id="LY-5"
           name="Libya"
           style="opacity:1;fill:#ececec;fill-opacity:1;stroke:#000000;stroke-width:0.0257485;stroke-linecap:round;stroke-linejoin:round" />
        <path
           d="m 40.535471,61.099662 -0.257484,0.09012 -0.476349,-0.643714 0.411972,-0.514971 0.399109,-0.321856 0.347602,-0.18024 0.283234,0.257486 0.218864,0.257485 -0.244613,0.399102 -0.141617,0.27036 -0.399101,0.128743 z"
           id="LS-9"
           name="Lesotho"
           style="opacity:1;fill:#ececec;fill-opacity:1;stroke:#000000;stroke-width:0.0257485;stroke-linecap:round;stroke-linejoin:round" />
        <path
           d="m 19.38305,6.7831344 0.244614,0.5278397 0.0386,0.5020979 0.244614,0.8754498 0.180237,0.1802442 -0.128739,0.3218537 -0.914077,0.1416168 -0.321854,0.2961117 -0.399101,0.07724 -0.0386,0.6179658 -0.823952,0.321861 -0.270363,0.411972 -0.579338,0.218864 -0.695213,0.128746 -1.145805,0.617958 -0.01291,0.978447 h -0.115868 l 0.01284,0.437728 -0.437721,0.02576 -0.231735,0.193108 h -0.321861 l -0.257485,-0.115868 -0.592216,0.09012 -0.244606,0.643715 -0.231743,0.06436 -0.347602,1.042816 -1.017067,0.888321 -0.257484,1.145812 -0.308983,0.373352 -0.09012,0.296105 -1.6092826,0.06435 h -0.012914 l 0.038599,-0.38623 0.2832335,-0.218864 0.2446063,-0.437721 -0.038599,-0.283234 0.2574844,-0.579345 0.4119793,-0.527847 0.2446061,-0.128739 0.205993,-0.476348 0.02576,-0.4506 0.270355,-0.502098 0.48922,-0.308983 0.463477,-0.836822 0.01284,-0.01284 0.37336,-0.321854 0.656585,-0.09012 0.566467,-0.566475 0.360481,-0.218857 0.605088,-0.695213 -0.154488,-1.017066 0.283234,-0.7209627 0.115867,-0.4377213 0.463471,-0.5535962 0.695213,-0.373352 0.527847,-0.3476029 0.476341,-0.8497007 0.231743,-0.514976 0.502097,0.012842 0.399102,0.3476029 0.656585,-0.051513 0.708084,0.1802442 z"
           id="MA-6"
           name="Morocco"
           style="opacity:1;fill:#ececec;fill-opacity:1;stroke:#000000;stroke-width:0.0257485;stroke-linecap:round;stroke-linejoin:round" />
        <path
           d="m 57.117527,47.066711 0.05151,0.991319 0.167359,0.386228 -0.09012,0.399102 -0.154487,0.231737 -0.205994,-0.476348 -0.154488,0.244611 0.102997,0.605091 -0.09013,0.36048 -0.218857,0.180239 -0.09012,0.708084 -0.34761,0.965571 -0.437721,1.132935 -0.553597,1.57066 -0.373352,1.14581 -0.399101,0.96557 -0.592216,0.193114 -0.656593,0.347605 -0.386223,-0.205988 -0.540718,-0.296108 -0.154495,-0.437725 v -0.733833 l -0.193115,-0.656588 -0.02576,-0.60509 0.167366,-0.592217 0.334731,-0.141616 0.02576,-0.27036 0.373352,-0.630839 0.102997,-0.527845 -0.141617,-0.386228 -0.102997,-0.527845 -0.01284,-0.759582 0.283234,-0.463474 0.128738,-0.527844 0.360481,-0.02575 0.41198,-0.167365 0.283233,-0.154491 0.308983,-0.01287 0.437721,-0.463474 0.630844,-0.51497 0.231735,-0.411976 -0.07725,-0.36048 0.308982,0.102994 0.424851,-0.566468 0.0386,-0.502096 0.257492,-0.373354 0.231735,0.36048 0.180237,0.347605 z"
           id="MG-6"
           name="Madagascar"
           style="opacity:1;fill:#ececec;fill-opacity:1;stroke:#000000;stroke-width:0.0257485;stroke-linecap:round;stroke-linejoin:round" />
        <path
           d="m 23.940544,20.017879 0.01284,1.90539 -0.399101,0.553594 -0.05151,0.514971 -0.643715,0.128742 -0.991317,0.06437 -0.257484,0.296108 -0.463471,0.03862 h -0.463478 l -0.180237,-0.154491 -0.399101,0.115868 -0.682342,0.347605 -0.141617,0.257486 -0.553588,0.360479 -0.102997,0.218863 -0.308983,0.167365 -0.347603,-0.115868 -0.193115,0.205988 -0.115867,0.566468 -0.579346,0.682336 0.02576,0.283234 -0.205986,0.347605 0.05151,0.476348 -0.308982,0.128743 -0.167366,0.102994 -0.115868,-0.347606 -0.205993,0.09012 -0.128739,-0.01287 -0.128746,0.231737 h -0.566467 l -0.193115,-0.128743 -0.102989,0.07725 -0.218865,-0.244611 0.0386,-0.244612 -0.09012,-0.09012 -0.154487,0.07725 0.0386,-0.27036 0.141617,-0.205988 -0.296105,-0.347605 -0.07725,-0.231738 -0.167366,-0.180239 -0.141617,-0.02575 -0.167366,0.115869 -0.244613,0.115868 -0.193115,0.18024 -0.308983,-0.06437 -0.205986,-0.218863 -0.115868,-0.02575 -0.193115,0.115868 h -0.115867 l -0.0386,-0.308982 0.0386,-0.257486 -0.06435,-0.308982 -0.257485,-0.231736 -0.141617,-0.476348 -0.02576,-0.514971 0.244606,-0.154492 0.128746,-0.489221 0.231735,-0.01288 0.502098,0.231738 0.41198,-0.167366 0.270355,0.0515 0.115868,-0.180239 2.896712,-0.01288 0.167366,-0.579342 -0.128746,-0.102994 -0.321854,-3.566176 -0.308983,-3.566169 1.094315,-0.01284 2.394614,1.802398 2.407485,1.802391 0.167366,0.38623 0.4506,0.231735 0.334732,0.141617 0.01284,0.527847 z"
           id="ML-1"
           name="Mali"
           style="opacity:1;fill:#ececec;fill-opacity:1;stroke:#000000;stroke-width:0.0257485;stroke-linecap:round;stroke-linejoin:round" />
        <path
           d="m 44.088769,57.958341 h -0.527847 l -0.0386,-0.373354 -0.07725,-0.373354 -0.05151,-0.296108 0.180244,-0.914073 -0.141617,-0.592216 -0.283233,-1.158684 0.798202,-0.939821 0.218865,-0.592217 0.102989,-0.07724 0.115868,-0.489222 -0.10299,-0.244612 0.05151,-0.617964 0.167366,-0.566468 0.05151,-1.05569 -0.360481,-0.257485 -0.347603,-0.06437 -0.141617,-0.205989 -0.334732,-0.167365 -0.605087,0.01287 -0.02576,-0.308982 -0.05151,-0.592216 2.214377,-0.682336 0.411972,0.399102 0.193115,-0.07725 0.283234,0.205988 0.02576,0.334732 -0.167366,0.386228 0.02576,0.579341 0.450599,0.514971 0.244614,-0.579342 0.321853,-0.167365 -0.01284,-1.068565 -0.283233,-0.592216 -0.244614,-0.27036 h -0.05151 l -0.07725,-0.939821 0.193115,-0.78533 0.283234,-0.02575 0.862579,0.231737 0.193115,-0.102995 0.50209,-0.02575 0.270363,-0.244611 0.437721,0.01287 0.79821,-0.321857 0.592216,-0.476348 0.115868,0.36048 -0.06435,0.823953 0.06435,0.733833 -0.02576,1.287427 0.102997,0.399102 -0.244614,0.592216 -0.308982,0.579342 -0.476349,0.514971 -0.682335,0.308982 -0.836829,0.399102 -0.849701,0.888325 -0.283234,0.154491 -0.540718,0.592217 -0.296111,0.180239 -0.10299,0.592216 0.308983,0.630839 0.115868,0.476348 v 0.257485 l 0.128738,-0.0515 -0.06435,0.811078 -0.141617,0.386228 0.154495,0.141618 -0.128745,0.347605 -0.308983,0.296108 -0.605087,0.27036 -0.888328,0.450599 -0.321854,0.308982 0.0386,0.347605 0.167366,0.0515 z"
           id="MZ-9"
           name="Mozambique"
           style="opacity:1;fill:#ececec;fill-opacity:1;stroke:#000000;stroke-width:0.0257485;stroke-linecap:round;stroke-linejoin:round" />
        <path
           d="m 17.374666,15.215779 -1.094314,0.01284 0.308983,3.566169 0.321854,3.566175 0.128745,0.102995 -0.167366,0.579342 -2.896712,0.01288 -0.115867,0.180239 -0.270356,-0.0515 -0.411979,0.167366 -0.502098,-0.231737 -0.231735,0.01288 -0.128746,0.489222 -0.244606,0.154491 -0.463478,-0.566467 -0.437721,-0.617965 -0.463478,-0.218862 -0.347603,-0.231738 H 9.959088 L 9.598607,22.322348 9.2510041,22.257979 8.9935197,22.515464 8.942007,22.077739 9.1479931,21.665762 9.2509897,20.893307 9.199477,20.069356 9.1222295,19.657376 9.199477,19.245397 9.01924,18.859174 8.658759,18.498693 8.8261249,18.22833 H 11.61984 l -0.115867,-1.197303 0.193115,-0.424851 0.669456,-0.06436 0.02576,-2.124259 2.317367,0.05151 0.02576,-1.26168 z"
           id="MR-9"
           name="Mauritania"
           style="opacity:1;fill:#ececec;fill-opacity:1;stroke:#000000;stroke-width:0.0257485;stroke-linecap:round;stroke-linejoin:round" />
        <path
           d="m 46.097153,47.066711 h 0.05151 l 0.244613,0.27036 0.283234,0.592216 0.01284,1.068564 -0.321854,0.167366 -0.244613,0.579342 -0.4506,-0.514971 -0.02576,-0.579342 0.167366,-0.386228 -0.02576,-0.334731 -0.283233,-0.205988 -0.193115,0.07725 -0.411972,-0.399103 -0.37336,-0.205988 0.257485,-0.772456 0.231742,-0.283234 -0.115867,-0.69521 0.167365,-0.669462 0.128739,-0.218863 -0.167366,-0.69521 -0.334732,-0.373353 0.708084,0.15449 0.128746,0.218863 -0.01291,0.102994 0.231742,0.527845 0.02576,0.991319 -0.231743,0.463473 0.205993,0.605091 -0.02576,0.36048 0.154488,0.24461 -0.01284,0.308983 0.115867,0.18024 0.128739,-0.205989 0.244613,0.321857 0.02576,-0.102995 -0.128746,-0.437724 -0.141617,-0.03862 z"
           id="MW-9"
           name="Malawi"
           style="opacity:1;fill:#ececec;fill-opacity:1;stroke:#000000;stroke-width:0.0257485;stroke-linecap:round;stroke-linejoin:round" />
        <path
           d="m 37.587261,50.336775 0.592216,-0.180239 0.463478,0.03862 0.283233,0.193114 v 0.06437 l -0.411979,0.193114 h -0.218865 l -0.476341,0.321857 -0.257492,-0.347605 -1.120056,0.296108 -0.540718,0.02575 -0.102996,2.948207 -0.708084,0.02575 -0.07725,2.407488 -0.141616,3.051202 -0.643715,0.42485 -0.373352,0.06437 -0.437729,-0.154491 -0.321853,-0.06437 -0.102997,-0.347605 -0.257484,-0.231736 -0.360481,0.411976 -0.502091,-0.630839 -0.257484,-0.592216 -0.128746,-0.811079 -0.154488,-0.592216 -0.205993,-1.274553 0.01291,-0.991318 -0.07725,-0.450599 -0.270362,-0.347605 -0.360474,-0.682336 -0.360481,-0.991319 -0.141617,-0.514971 -0.566467,-0.811079 -0.0386,-0.630838 0.34761,-0.154492 0.437721,-0.141616 0.463478,0.02575 0.42485,0.373353 0.102989,-0.06437 2.922462,-0.02575 0.489219,0.386228 1.738029,0.115868 z"
           id="NA-1"
           name="Namibia"
           style="opacity:1;fill:#ececec;fill-opacity:1;stroke:#000000;stroke-width:0.0257485;stroke-linecap:round;stroke-linejoin:round" />
        <path
           d="m 31.459112,16.953801 0.205986,1.287429 0.283233,0.218864 0.01291,0.257485 0.308983,0.283233 -0.154495,0.360481 -0.231735,1.673653 -0.02576,1.081437 -0.901199,0.772456 -0.296105,1.094313 0.308983,0.308982 v 0.527845 l 0.476348,0.01287 -0.07725,0.399103 -0.193115,0.03862 -0.02576,0.270359 -0.128738,0.01287 -0.502098,-0.901199 -0.180244,-0.03862 -0.553589,0.463473 -0.566467,-0.244611 -0.38623,-0.03862 -0.205986,0.115868 -0.424851,-0.02575 -0.42485,0.347605 -0.373359,0.02575 -0.87545,-0.424851 -0.347603,0.193114 -0.373352,-0.01287 -0.270363,-0.308982 -0.720955,-0.308982 -0.785331,0.102994 -0.180244,0.167365 -0.10299,0.476348 -0.205993,0.334732 -0.05151,0.746707 -0.553596,-0.476348 h -0.257484 l -0.244614,0.244611 0.01291,-0.566468 -0.83683,-0.193114 -0.02576,-0.399102 -0.399102,-0.540719 -0.102996,-0.373354 0.06435,-0.399102 0.46347,-0.03862 0.257484,-0.296108 0.991318,-0.06437 0.643715,-0.128742 0.05151,-0.514971 0.399101,-0.553593 -0.01284,-1.905387 1.004189,-0.360481 2.059882,-1.622154 2.420364,-1.583541 1.132934,0.360481 0.411979,0.4506 z"
           id="NE-2"
           name="Niger"
           style="opacity:1;fill:#ececec;fill-opacity:1;stroke:#000000;stroke-width:0.0257485;stroke-linecap:round;stroke-linejoin:round" />
        <path
           d="m 31.150129,25.540938 0.296112,0.321856 -0.07725,0.154492 -0.0386,0.270359 -0.605095,0.643714 -0.180237,0.527844 -0.102996,0.424852 -0.154488,0.193113 -0.141617,0.579343 -0.38623,0.334731 -0.102997,0.411976 -0.167366,0.334731 -0.06435,0.347605 -0.502098,0.283234 -0.411972,-0.347605 -0.270362,0.01287 -0.437729,0.489223 h -0.205986 l -0.347603,0.798204 -0.180244,0.592216 -0.759575,0.296108 -0.270362,-0.03862 -0.283234,0.18024 -0.579345,-0.01288 -0.399102,-0.527845 -0.244606,-0.592216 -0.514976,-0.54072 h -0.540718 -0.643714 l 0.0386,-1.326049 -0.02576,-0.527845 0.141617,-0.51497 0.218864,-0.257486 0.360474,-0.51497 -0.07724,-0.218863 0.141617,-0.33473 -0.167366,-0.489223 0.02576,-0.27036 0.05151,-0.746707 0.205994,-0.334731 0.102989,-0.476348 0.180244,-0.167365 0.785332,-0.102994 0.720954,0.308982 0.270363,0.308982 0.373352,0.01287 0.347603,-0.193114 0.87545,0.424851 0.373359,-0.02575 0.42485,-0.347605 0.424851,0.02575 0.205986,-0.115868 0.38623,0.03862 0.566467,0.244611 0.553589,-0.463473 0.180244,0.03862 0.502098,0.901199 z"
           id="NG-8"
           name="Nigeria"
           style="opacity:1;fill:#ececec;fill-opacity:1;stroke:#000000;stroke-width:0.0257485;stroke-linecap:round;stroke-linejoin:round" />
        <path
           d="m 45.582184,9.0747521 0.05151,0.5149688 -0.07725,0.2446134 -0.321861,0.1029894 0.01284,-0.218857 0.167366,-0.1158676 -0.193116,-0.090126 0.09012,-0.540718 z"
           id="PS-0"
           name="Palestine"
           style="opacity:1;fill:#ececec;fill-opacity:1;stroke:#000000;stroke-width:0.0257485;stroke-linecap:round;stroke-linejoin:round" />
        <path
           d="m 57.400761,15.499013 -0.193115,0.06436 -0.231736,-0.167366 -0.102996,-0.605088 0.141617,-0.424857 0.193115,-0.09012 0.231735,0.257485 0.06436,0.476349 z"
           id="QA-3"
           name="Qatar"
           style="opacity:1;fill:#ececec;fill-opacity:1;stroke:#000000;stroke-width:0.0257485;stroke-linecap:round;stroke-linejoin:round" />
        <path
           d="m 43.071702,36.793047 0.283234,0.463474 -0.0386,0.489222 -0.205986,0.102994 -0.399101,-0.0515 -0.218864,0.476348 -0.4506,-0.06437 0.07725,-0.463473 0.102996,-0.06437 0.02576,-0.489222 0.205986,-0.231737 0.180237,0.09012 z"
           id="RW-0"
           name="Rwanda"
           style="opacity:1;fill:#ececec;fill-opacity:1;stroke:#000000;stroke-width:0.0257485;stroke-linecap:round;stroke-linejoin:round" />
        <path
           d="m 14.761188,13.001402 -0.01284,0.05151 -0.01291,0.154487 -0.02576,1.26168 -2.317367,-0.05151 -0.02576,2.124259 -0.669457,0.06435 -0.193115,0.424851 0.115868,1.197303 H 8.8261321 L 8.6587662,18.4987 8.6973647,18.151097 h 0.012914 l 1.6092833,-0.06435 0.09012,-0.296104 0.308983,-0.373352 0.257484,-1.145813 1.017067,-0.888321 0.347603,-1.042815 0.231742,-0.06435 0.244607,-0.643715 0.592216,-0.09012 0.257484,0.115867 h 0.321861 l 0.231736,-0.193108 0.437721,-0.02576 -0.01284,-0.437729 z"
           id="EH-0"
           name="Western Sahara"
           style="opacity:1;fill:#ececec;fill-opacity:1;stroke:#000000;stroke-width:0.0257485;stroke-linecap:round;stroke-linejoin:round" />
        <path
           d="m 47.217216,23.931655 -0.09012,0.708084 -0.257492,0.823953 -0.42485,0.399102 -0.296105,0.643714 -0.06435,0.334731 -0.334731,0.231737 -0.193116,0.862575 v 0.102995 l -0.102996,-0.02575 0.01284,-0.411977 -0.102997,-0.283234 -0.373352,-0.321857 -0.115867,-0.592216 0.07724,-0.617965 -0.334725,-0.0515 -0.05151,0.18024 -0.437728,0.0515 0.193115,0.231737 0.06435,0.502096 -0.386223,0.4506 -0.34761,0.592216 -0.373352,0.09012 -0.617966,-0.476348 -0.270355,0.167365 -0.06435,0.231737 -0.373352,0.167366 -0.02576,0.167365 h -0.720955 l -0.102997,-0.167365 -0.527847,-0.03862 -0.257484,0.141616 -0.205986,-0.06437 -0.373352,-0.489222 -0.128746,-0.218862 -0.527847,0.115868 -0.193115,0.373354 -0.167366,0.746708 -0.257485,0.15449 -0.218857,0.09012 -0.06435,-0.03862 -0.244606,-0.244611 -0.05151,-0.257485 0.10299,-0.334731 v -0.347605 l -0.42485,-0.514971 -0.09012,-0.347605 v -0.205989 l -0.270355,-0.244611 -0.01284,-0.476348 -0.167366,-0.321857 -0.244607,0.0515 0.06436,-0.308982 0.180237,-0.334731 -0.09012,-0.347605 0.231735,-0.257486 -0.154488,-0.193114 0.167366,-0.502096 0.321854,-0.617965 0.617965,0.06437 -0.141616,-3.282933 v -0.34761 h 0.823951 L 38.73308,17.67477 h 2.870963 2.767967 2.845213 l 0.270356,0.811081 -0.154488,0.141616 0.154488,0.862572 0.321861,0.978447 0.283233,0.205986 0.411972,0.308982 -0.347602,0.463473 -0.514969,0.141617 -0.218864,0.257486 -0.0386,0.540718 -0.257484,1.223056 z"
           id="SD-8"
           name="Sudan"
           style="opacity:1;fill:#ececec;fill-opacity:1;stroke:#000000;stroke-width:0.0257485;stroke-linecap:round;stroke-linejoin:round" />
        <path
           d="m 45.556435,28.038546 0.02576,0.643713 -0.102996,0.244611 -0.386231,0.02575 -0.244606,0.463474 0.4506,0.06437 0.386223,0.399102 0.128746,0.334731 0.334731,0.193115 0.4506,0.901198 -0.489227,0.540719 -0.437721,0.489222 -0.4506,0.386228 h -0.514969 l -0.579345,0.193115 -0.46347,-0.193115 -0.296112,0.231737 -0.656586,-0.553593 -0.180237,-0.347605 -0.399108,0.167365 -0.334725,-0.0515 -0.193115,0.141617 -0.334732,-0.102994 -0.450599,-0.682336 -0.115868,-0.257486 -0.553596,-0.33473 -0.180237,-0.489223 -0.308983,-0.360479 -0.502097,-0.42485 -0.01284,-0.27036 -0.399108,-0.334731 -0.502091,-0.321857 0.218857,-0.09012 0.257485,-0.154491 0.167366,-0.746707 0.193115,-0.373354 0.527847,-0.115869 0.128746,0.218863 0.373352,0.489222 0.205986,0.06437 0.257484,-0.141617 0.527847,0.03862 0.102997,0.167365 h 0.720955 l 0.02576,-0.167365 0.373352,-0.167366 0.06435,-0.231737 0.270355,-0.167365 0.617966,0.476348 0.373352,-0.09012 0.34761,-0.592217 0.386223,-0.450599 -0.06435,-0.502096 -0.193115,-0.231737 0.437729,-0.0515 0.05151,-0.18024 0.334725,0.0515 -0.07724,0.617965 0.115867,0.592216 0.373352,0.321857 0.102997,0.283234 -0.01284,0.411976 z"
           id="SS-5"
           name="South Sudan"
           style="opacity:1;fill:#ececec;fill-opacity:1;stroke:#000000;stroke-width:0.0257485;stroke-linecap:round;stroke-linejoin:round" />
        <path
           d="m 12.070469,23.777163 0.02576,0.514971 0.141617,0.476348 0.257484,0.231737 0.06435,0.308982 -0.0386,0.257486 -0.102997,0.0515 -0.399101,-0.06437 -0.05151,0.09012 -0.154488,0.01287 -0.527847,-0.193114 -0.347602,-0.01288 -1.338928,-0.03862 -0.1931151,0.102994 -0.2446062,-0.02575 -0.3862302,0.128743 -0.1029967,-0.630839 0.6565928,0.01288 0.1802369,-0.115868 h 0.1287386 l 0.2703626,-0.193114 0.3089823,0.167365 0.308983,0.02575 0.321854,-0.193114 -0.141617,-0.231737 -0.244606,0.128743 h -0.218864 l -0.283234,-0.205988 -0.2317352,0.01287 -0.1673659,0.205989 -0.7853314,0.01288 -0.2961118,-0.643713 -0.3476029,-0.283235 0.321861,-0.167365 0.3604738,-0.579342 0.1802441,-0.424851 0.2574844,-0.257485 0.3476029,0.06437 0.360481,-0.18024 h 0.399101 l 0.347603,0.231737 0.463478,0.218862 0.437721,0.617965 z"
           id="SN-3"
           name="Senegal"
           style="opacity:1;fill:#ececec;fill-opacity:1;stroke:#000000;stroke-width:0.0257485;stroke-linecap:round;stroke-linejoin:round" />
        <path
           d="m 13.422267,28.913996 -0.334732,0.386228 -0.334731,0.437725 -0.0386,0.244611 -0.180244,0.27036 -0.193115,-0.06437 -0.514969,-0.334731 -0.38623,-0.437725 -0.115868,-0.308982 -0.09012,-0.605091 0.399101,-0.373353 0.07725,-0.218863 0.128746,-0.18024 0.205986,-0.02575 0.167366,-0.154491 h 0.579338 l 0.205994,0.296108 0.154487,0.347606 -0.02576,0.24461 0.115868,0.218863 -0.01284,0.296108 z"
           id="SL-8"
           name="Sierra Leone"
           style="opacity:1;fill:#ececec;fill-opacity:1;stroke:#000000;stroke-width:0.0257485;stroke-linecap:round;stroke-linejoin:round" />
        <path
           d="m 43.445054,57.211633 0.07725,0.373354 0.0386,0.373354 -0.180237,0.360479 -0.411979,0.09012 -0.399101,-0.450599 0.01284,-0.283234 0.218864,-0.308982 0.07725,-0.244611 0.218864,-0.0515 z"
           id="SZ-8"
           name="Swaziland"
           style="opacity:1;fill:#ececec;fill-opacity:1;stroke:#000000;stroke-width:0.0257485;stroke-linecap:round;stroke-linejoin:round" />
        <path
           d="m 47.732185,8.2636715 -1.248802,0.888328 -0.81108,-0.3347318 h -0.01291 L 45.736636,8.6885218 45.685123,8.35379 45.800998,7.9031904 46.148601,7.5813367 45.994106,7.259483 45.672252,7.2208845 45.530635,6.5900481 45.659374,6.242438 45.82674,6.0622011 l 0.154495,-0.1802369 -0.02576,-0.4505995 0.244614,0.1544877 0.720955,-0.2317352 0.38623,0.1544878 h 0.566467 l 0.733833,-0.3089755 0.373352,0.012842 0.759582,-0.1287458 -0.270355,0.514976 -0.34761,0.2059861 0.154495,0.6050872 -0.128746,0.9913247 z"
           id="SY-4"
           name="Syria"
           style="opacity:1;fill:#ececec;fill-opacity:1;stroke:#000000;stroke-width:0.0257485;stroke-linecap:round;stroke-linejoin:round" />
        <path
           d="m 37.973491,19.670276 0.141617,3.282934 -0.617966,-0.06437 -0.321854,0.617965 -0.167366,0.502096 0.154488,0.193115 -0.231735,0.257485 0.09012,0.347605 -0.180236,0.334731 -0.06435,0.308982 0.244606,-0.0515 0.167366,0.321856 0.01284,0.476348 0.270355,0.244612 v 0.205988 l -0.46347,0.141617 -0.360481,0.334731 -0.514969,0.901198 -0.669464,0.386228 -0.708084,-0.0515 -0.205986,0.07724 0.07724,0.283234 -0.373352,0.296108 -0.308982,0.321857 -0.91407,0.308982 -0.180244,-0.18024 -0.128739,-0.02575 -0.128746,0.218863 -0.592216,0.06437 0.102997,-0.231736 -0.231736,-0.566468 -0.102996,-0.334731 -0.321854,-0.141617 -0.437729,-0.489223 0.154495,-0.386227 0.334725,0.07725 0.205993,-0.0515 h 0.411972 l -0.411972,-0.746708 0.02576,-0.553593 -0.06435,-0.540719 -0.296105,-0.527845 0.07725,-0.399103 -0.476349,-0.01287 v -0.527845 l -0.308983,-0.308982 0.296105,-1.094313 0.901199,-0.772456 0.02576,-1.081435 0.231736,-1.673653 0.154495,-0.360481 -0.308983,-0.283233 -0.01291,-0.257485 -0.283234,-0.218864 -0.205986,-1.287429 0.708084,-0.4506 2.896712,1.583534 z"
           id="TD-9"
           name="Chad"
           style="opacity:1;fill:#ececec;fill-opacity:1;stroke:#000000;stroke-width:0.0257485;stroke-linecap:round;stroke-linejoin:round" />
        <path
           d="m 21.52018,26.763993 -0.09012,0.437725 0.218857,0.244612 0.257484,0.283233 0.02576,0.411977 0.154495,0.167366 -0.0386,1.905391 0.180244,0.566468 -0.579345,0.180239 -0.167366,-0.296108 -0.193108,-0.527845 -0.06436,-0.411976 0.167366,-0.733833 L 21.21125,28.682259 21.134,28.038546 v -0.605091 l -0.296105,-0.42485 0.05151,-0.257486 z"
           id="TG-5"
           name="Togo"
           style="opacity:1;fill:#ececec;fill-opacity:1;stroke:#000000;stroke-width:0.0257485;stroke-linecap:round;stroke-linejoin:round" />
        <path
           d="m 28.832762,8.4696576 -0.01284,0.6308436 -0.334732,0.2317353 -0.205993,0.2703626 -0.463471,0.3218537 0.07725,0.3347322 -0.05151,0.360481 -0.334732,0.180237 L 27.171995,9.3193655 26.734274,8.9846336 26.721432,8.7915185 26.142094,8.2894207 26.064846,7.6714552 26.476818,7.2079847 26.618435,6.52565 26.489696,5.7403186 l 0.128739,-0.4248504 0.733833,-0.3218609 0.476349,0.090118 v 0.4248503 l 0.566467,-0.3089755 0.05151,0.1544877 -0.321854,0.4119794 0.01284,0.373352 0.244614,0.2059861 -0.06435,0.7209621 -0.4506,0.4119722 0.154488,0.4505995 0.360481,0.012842 0.180237,0.3991012 z"
           id="TN-2"
           name="Tunisia"
           style="opacity:1;fill:#ececec;fill-opacity:1;stroke:#000000;stroke-width:0.0257485;stroke-linecap:round;stroke-linejoin:round" />
        <path
           d="m 44.127389,36.702927 -0.02576,0.502096 -0.141617,0.579343 0.205993,0.321856 0.321854,-0.193114 0.42485,-0.0515 0.09012,0.102995 0.42485,-0.205988 -0.296105,-0.283235 0.244607,-0.373353 0.360481,-0.373354 2.639227,1.686529 0.0386,0.476348 1.042816,0.823953 -0.360481,1.029941 0.0386,0.463474 0.4506,0.296108 0.02576,0.218862 -0.218864,0.502097 0.0386,0.244611 -0.05151,0.399102 0.231742,0.514971 0.283234,0.823953 0.257484,0.18024 -0.592216,0.476347 -0.79821,0.321857 -0.437721,-0.01287 -0.270363,0.244611 -0.50209,0.02575 -0.193116,0.102994 -0.862578,-0.231737 -0.283234,0.02575 0.01291,-0.01287 -0.231742,-0.308982 -0.0386,-0.87545 -0.373352,-0.437725 -0.05151,0.154491 -0.128746,-0.218862 -0.708084,-0.154491 -0.411972,-0.244611 -0.463478,-0.141617 -0.283234,-0.141618 -0.0386,-0.02575 -0.347603,-0.849701 -0.05151,-0.502097 -0.579345,-0.566468 0.180244,-0.308982 -0.141617,-0.334731 0.02576,-0.347605 -0.128739,-0.115868 0.0386,-0.36048 0.07725,-0.01287 0.257484,-0.296108 0.296112,-0.437725 0.180237,-0.167365 v -0.27036 l -0.154488,-0.193113 -0.0386,-0.321857 0.205986,-0.102994 0.0386,-0.489222 -0.283233,-0.463474 0.257484,-0.102994 z"
           id="TZ-4"
           name="Tanzania"
           style="opacity:1;fill:#ececec;fill-opacity:1;stroke:#000000;stroke-width:0.0257485;stroke-linecap:round;stroke-linejoin:round" />
        <path
           d="m 45.672303,32.338551 0.347602,0.579342 0.09012,0.411976 0.334732,0.952696 -0.270356,0.605091 -0.360481,0.540719 -0.205986,0.33473 v 0.03862 l -0.02576,-0.0515 -0.38623,-0.167366 -0.308983,0.205989 -0.463471,0.115868 -0.334731,0.476348 0.0386,0.321856 -0.798202,-0.01287 -0.257485,0.102994 -0.437728,0.257486 -0.180237,-0.09012 0.01284,-0.617965 0.167366,-0.321857 0.0386,-0.656587 0.154488,-0.386228 0.283234,-0.424851 0.270362,-0.231737 0.244607,-0.283233 -0.296105,-0.115869 0.0386,-0.96557 0.296112,-0.231737 0.463471,0.193115 0.579345,-0.193115 h 0.514969 z"
           id="UG-5"
           name="Uganda"
           style="opacity:1;fill:#ececec;fill-opacity:1;stroke:#000000;stroke-width:0.0257485;stroke-linecap:round;stroke-linejoin:round" />
        <path
           d="m 43.496553,42.934072 0.0386,0.02575 0.283234,0.141617 0.463477,0.141617 0.411972,0.244611 0.334732,0.373354 0.167366,0.69521 -0.128738,0.218863 -0.167366,0.669461 0.115867,0.695211 -0.231742,0.283234 -0.257485,0.772456 0.37336,0.205988 -2.214378,0.682336 0.05151,0.592217 -0.553596,0.115868 -0.42485,0.321856 -0.10299,0.283234 -0.257491,0.07725 -0.656586,0.669462 -0.411972,0.540719 -0.244614,0.01287 -0.231735,-0.09012 -0.79821,-0.09012 -0.128738,-0.06437 v -0.06437 l -0.283234,-0.193114 -0.463477,-0.03862 -0.592217,0.18024 -0.46347,-0.514971 -0.463478,-0.669462 0.102997,-2.639225 1.506293,0.01287 -0.05151,-0.283234 0.115867,-0.308982 -0.115867,-0.386228 0.09012,-0.399103 -0.07725,-0.257485 0.244613,0.01287 0.0386,0.257485 0.347611,-0.01288 0.450592,0.07725 0.244613,0.373353 0.566467,0.115869 0.4506,-0.257485 0.154495,0.424851 0.553589,0.115868 0.257484,0.360479 0.283234,0.4506 h 0.553596 l -0.02576,-0.888325 -0.205987,0.154491 -0.502097,-0.321856 -0.193115,-0.154492 0.115867,-0.823952 0.141617,-0.978445 -0.154488,-0.360479 0.218864,-0.527845 0.193116,-0.102994 0.991317,-0.141617 0.115868,0.03862 -0.0386,0.18024 0.244614,0.06437 0.154495,0.167366 0.128738,-0.03862 z"
           id="ZM-6"
           name="Zambia"
           style="opacity:1;fill:#ececec;fill-opacity:1;stroke:#000000;stroke-width:0.0257485;stroke-linecap:round;stroke-linejoin:round" />
        <path
           d="m 43.14895,54.250552 -0.37336,-0.09012 -0.244606,0.102995 -0.34761,-0.141618 h -0.283233 l -0.437722,-0.373353 -0.553596,-0.128743 -0.193115,-0.527845 0.01284,-0.296108 -0.296112,-0.09012 -0.785331,-0.901199 -0.205986,-0.476347 -0.141617,-0.154492 -0.244613,-0.656587 0.798209,0.09012 0.231735,0.09012 0.244614,-0.01287 0.411972,-0.540719 0.656586,-0.669462 0.257491,-0.07725 0.10299,-0.283233 0.42485,-0.321857 0.553596,-0.115868 0.02576,0.308982 0.605087,-0.01287 0.334732,0.167365 0.141617,0.205988 0.347602,0.06437 0.360481,0.257486 -0.05151,1.05569 -0.167366,0.566467 -0.05151,0.617965 0.102989,0.244611 -0.115867,0.489223 -0.10299,0.07725 -0.218864,0.592216 z"
           id="ZW-7"
           name="Zimbabwe"
           style="opacity:1;fill:#ececec;fill-opacity:1;stroke:#000000;stroke-width:0.0257485;stroke-linecap:round;stroke-linejoin:round" />
        <path
           d="m 51.221113,37.243646 -0.42485,-0.682336 -0.02576,-3.012578 0.630836,-0.926947 0.193115,-0.27036 0.463471,-0.01288 0.643714,-0.579342 0.93982,-0.03862 2.008391,-2.484733 -0.617966,0.01288 -2.407492,-0.978445 -0.283234,-0.296108 -0.283233,-0.399102 -0.283234,-0.463474 0.154495,-0.283233 0.244606,-0.4506 0.244614,0.154492 0.154495,0.347605 0.347603,0.347605 h 0.360481 l 0.669456,-0.218862 0.785332,-0.09012 0.630843,-0.257486 0.360474,-0.0515 0.257492,-0.154491 0.411972,-0.02575 0.231735,-0.02575 0.321861,-0.115869 0.386223,-0.09012 0.321861,-0.283234 h 0.283234 l 0.02576,0.231737 -0.05151,0.476348 0.02576,0.437725 -0.141617,0.296108 -0.180244,0.901198 -0.308976,0.914073 -0.424857,1.05569 -0.592217,1.210181 -0.605087,0.926947 -0.849701,1.132936 -0.720962,0.669461 -1.081436,0.823953 -0.682334,0.617965 -0.798203,1.004193 -0.167366,0.437725 z"
           id="SO-8"
           name="Somalia"
           style="opacity:1;fill:#ececec;fill-opacity:1;stroke:#000000;stroke-width:0.0257485;stroke-linecap:round;stroke-linejoin:round" />
        <path
           d="m 43.14895,54.250552 0.283233,1.158684 0.141617,0.592216 -0.180244,0.914073 0.05151,0.296108 -0.347603,-0.141616 -0.218865,0.0515 -0.07725,0.244611 -0.218864,0.308982 -0.01284,0.283235 0.399101,0.450598 0.411979,-0.09012 0.180237,-0.360478 h 0.527847 l -0.218864,0.60509 -0.128746,0.682336 -0.218857,0.373353 -0.514976,0.424851 -0.141617,0.115869 -0.334725,0.424851 -0.231742,0.42485 -0.450599,0.592217 -0.862572,0.849701 -0.527847,0.489222 -0.553596,0.386229 -0.759575,0.308982 -0.34761,0.0515 -0.115868,0.231737 -0.411972,-0.128743 -0.34761,0.154491 -0.733833,-0.154491 -0.424851,0.102994 -0.283233,-0.0515 -0.746704,0.334731 -0.592217,0.128743 -0.450599,0.308982 -0.308983,0.02575 -0.270362,-0.296108 -0.231736,-0.01287 -0.283233,-0.373354 -0.0386,0.115868 -0.07724,-0.218862 0.0386,-0.489223 -0.193115,-0.553593 0.231736,-0.154491 0.01291,-0.630839 -0.42485,-0.772456 -0.308983,-0.695211 v -0.01287 l -0.463478,-1.068564 0.360481,-0.411976 0.257485,0.231736 0.102996,0.347605 0.321854,0.06437 0.437728,0.154491 0.373352,-0.06437 0.643715,-0.424851 0.141617,-3.051201 0.180237,0.128743 0.38623,0.78533 -0.07725,0.502096 0.141616,0.296108 0.514976,-0.09012 0.360474,-0.373353 0.34761,-0.244611 0.193115,-0.399103 0.360474,-0.180239 0.296112,0.09012 0.321854,0.231738 0.579345,0.03862 0.46347,-0.18024 0.07725,-0.257485 0.154488,-0.399102 0.38623,-0.06437 0.231735,-0.308983 0.257492,-0.553593 0.669456,-0.617965 1.042816,-0.605091 h 0.283234 l 0.34761,0.141618 0.244606,-0.102995 z m -2.613479,6.84911 0.141617,-0.257485 0.399101,-0.128743 0.141617,-0.27036 0.244613,-0.399102 -0.218864,-0.257485 -0.283234,-0.257486 -0.347602,0.18024 -0.399109,0.321856 -0.411972,0.514971 0.476349,0.643714 z"
           id="ZA-1"
           name="South Africa"
           style="opacity:1;fill:#ececec;fill-opacity:1;stroke:#000000;stroke-width:0.0257485;stroke-linecap:round;stroke-linejoin:round" />
        <path
           d="m 56.6283,14.160085 0.0386,0.01284 0.02576,-0.01284 0.05151,0.09012 -0.01284,0.02576 0.01284,0.115868 v 0.09013 l -0.02576,0.05151 -0.01291,-0.05151 -0.07725,-0.102996 0.01284,-0.05151 -0.02576,-0.09012 v -0.05151 z"
           id="BH-3"
           name="Bahrain"
           style="opacity:1;fill:#ececec;fill-opacity:1;stroke:#000000;stroke-width:0.0257485;stroke-linecap:round;stroke-linejoin:round" />
        <path
           class="Comoros"
           d="m 52.650152,46.088268 -0.115867,-0.01287 -0.02576,-0.0515 v -0.03862 l 0.06435,0.01288 0.09012,0.06437 z"
           id="path1265-2"
           style="opacity:1;fill:#ececec;fill-opacity:1;stroke:#000000;stroke-width:0.0257485;stroke-linecap:round;stroke-linejoin:round" />
        <path
           class="Comoros"
           d="m 53.126501,45.843656 0.02576,0.128742 v 0.09012 l -0.01284,0.02575 -0.02576,-0.03862 -0.05151,-0.03862 -0.01291,-0.02575 -0.0386,-0.01287 -0.07725,-0.0515 0.01291,-0.01287 0.06435,0.02575 0.0386,-0.01287 0.02576,-0.0515 v -0.02575 l 0.0386,-0.01288 z"
           id="path1267-2"
           style="opacity:1;fill:#ececec;fill-opacity:1;stroke:#000000;stroke-width:0.0257485;stroke-linecap:round;stroke-linejoin:round" />
        <path
           class="Comoros"
           d="m 52.392668,45.714913 -0.06435,-0.0515 -0.0386,-0.01288 -0.0386,-0.02575 -0.02576,-0.07725 0.01291,-0.03862 v -0.02575 l 0.02576,-0.154491 -0.01291,-0.01287 0.02576,-0.0515 0.06436,-0.01287 0.02576,0.03862 -0.02576,0.15449 0.01291,0.03862 0.02576,0.0515 0.01284,0.06437 0.02576,0.07724 z"
           id="path1269-3"
           style="opacity:1;fill:#ececec;fill-opacity:1;stroke:#000000;stroke-width:0.0257485;stroke-linecap:round;stroke-linejoin:round" />
        <path
           class="Cyprus"
           d="m 44.281884,6.8732528 0.01284,0.025756 0.0386,0.051513 -0.05151,-0.012842 h -0.0386 l -0.05151,0.025756 -0.0386,-0.038598 v -0.038598 l 0.0386,-0.012842 0.02576,0.012842 z"
           id="path1296-1"
           style="opacity:1;fill:#ececec;fill-opacity:1;stroke:#000000;stroke-width:0.0257485;stroke-linecap:round;stroke-linejoin:round" />
        <path
           class="Cyprus"
           d="m 44.06302,6.9376221 v 0.012842 l -0.02576,0.025756 -0.01284,0.07724 -0.01291,0.025756 h -0.0386 l -0.02576,0.025756 -0.06436,0.025756 -0.02576,0.012842 -0.07725,0.038598 -0.05151,-0.012842 -0.06436,0.012842 -0.0386,0.051513 -0.02576,-0.038598 -0.0386,0.012842 h -0.02576 l -0.0386,-0.038598 -0.05151,0.038598 h -0.06435 l -0.06435,-0.025756 -0.06435,-0.012842 -0.05151,-0.038598 -0.0386,-0.077247 -0.0386,-0.038598 -0.02576,-0.090118 -0.02576,-0.038598 0.01284,-0.038598 0.06435,0.038598 0.05151,-0.012842 0.02576,-0.038598 0.01291,-0.038598 0.0386,-0.012842 0.02576,0.012842 0.02576,-0.025756 h 0.02576 l 0.01284,0.051513 0.06435,0.025756 0.01284,0.025756 h 0.07725 l 0.07724,-0.064355 0.05151,0.012842 0.0386,-0.025756 0.0386,0.012914 0.05151,0.025756 0.02576,-0.038598 h 0.0386 l 0.0386,0.051513 v 0.077247 l 0.0386,-0.025756 0.0386,0.025756 0.01292,-0.012914 z"
           id="path1298-0"
           style="opacity:1;fill:#ececec;fill-opacity:1;stroke:#000000;stroke-width:0.0257485;stroke-linecap:round;stroke-linejoin:round" />
        <path
           class="Malta"
           d="m 30.854024,6.2295382 -0.02576,0.038598 -0.06436,-0.025756 -0.06435,-0.038598 V 6.139427 l -0.01284,-0.012914 h 0.07724 l 0.05151,0.038598 0.02576,0.025756 z"
           id="path1353-3"
           style="opacity:1;fill:#ececec;fill-opacity:1;stroke:#000000;stroke-width:0.0257485;stroke-linecap:round;stroke-linejoin:round" />
        <path
           class="Malta"
           d="m 30.648031,6.0879214 -0.06435,-0.012842 v -0.025756 l 0.05151,-0.012914 0.05151,0.038598 z"
           id="path1355-2"
           style="opacity:1;fill:#ececec;fill-opacity:1;stroke:#000000;stroke-width:0.0257485;stroke-linecap:round;stroke-linejoin:round" />
        <path
           class="São Tomé and Principe"
           d="m 25.704315,35.788854 h -0.02576 l -0.02576,0.03862 h -0.02576 l -0.01284,-0.0515 -0.02576,-0.102995 v -0.03862 l 0.05151,-0.06437 0.0386,-0.01287 0.0386,-0.03862 0.05151,0.01287 0.02576,0.0515 0.01284,0.03862 -0.01284,0.0515 -0.02576,0.03862 -0.0386,0.0515 z"
           id="path1494-0"
           style="opacity:1;fill:#ececec;fill-opacity:1;stroke:#000000;stroke-width:0.0257485;stroke-linecap:round;stroke-linejoin:round" />
        <path
           class="São Tomé and Principe"
           d="m 26.296531,34.527176 -0.01284,0.03862 -0.02576,0.01287 -0.0386,-0.01287 v -0.03862 l 0.02576,-0.01288 v -0.03862 l 0.02576,-0.02575 0.0386,0.01287 z"
           id="path1496-4"
           style="opacity:1;fill:#ececec;fill-opacity:1;stroke:#000000;stroke-width:0.0257485;stroke-linecap:round;stroke-linejoin:round" />
        <path
           class="Seychelles"
           d="m 54.684286,43.616408 -0.0386,0.02575 h -0.06435 l -0.05151,0.02575 h -0.05151 v -0.02575 h 0.06435 l 0.05151,-0.01287 0.05151,-0.03862 h 0.02576 z"
           id="path1499-9"
           style="opacity:1;fill:#ececec;fill-opacity:1;stroke:#000000;stroke-width:0.0257485;stroke-linecap:round;stroke-linejoin:round" />
        <path
           class="Seychelles"
           d="m 54.619916,43.577786 -0.02576,0.01287 h -0.05151 v -0.02575 z"
           id="path1501-4"
           style="opacity:1;fill:#ececec;fill-opacity:1;stroke:#000000;stroke-width:0.0257485;stroke-linecap:round;stroke-linejoin:round" />
        <path
           class="Canary Islands (Spain)"
           d="m 8.2596867,12.885534 -0.038598,0.06436 -0.051513,0.06435 -0.038598,-0.05151 h -0.051513 l -0.025756,-0.02576 0.025756,-0.0386 0.051513,0.01291 0.051513,-0.05151 0.038599,-0.02576 0.025756,0.01284 z"
           id="path1578-2"
           style="opacity:1;fill:#ececec;fill-opacity:1;stroke:#000000;stroke-width:0.0257485;stroke-linecap:round;stroke-linejoin:round" />
        <path
           class="Canary Islands (Spain)"
           d="m 10.010586,12.58943 v 0.06435 l 0.02576,0.05151 -0.02576,0.09012 0.01284,0.0386 L 9.971914,12.88552 9.907559,12.91128 9.881803,12.93704 9.804556,12.91128 9.740201,12.84693 9.714445,12.79542 v -0.07725 l 0.077247,-0.05151 0.012842,-0.06435 v -0.02576 l 0.077247,0.01284 h 0.051513 l 0.038599,0.01284 z"
           id="path1580-0"
           style="opacity:1;fill:#ececec;fill-opacity:1;stroke:#000000;stroke-width:0.0257485;stroke-linecap:round;stroke-linejoin:round" />
        <path
           class="Canary Islands (Spain)"
           d="m 8.7360353,12.692419 h -0.025756 l -0.038598,-0.02576 -0.025756,-0.0386 0.012914,-0.05151 0.012842,-0.0386 h 0.038598 0.038598 l 0.064355,0.05151 0.012914,0.0386 -0.064355,0.06435 z"
           id="path1582-5"
           style="opacity:1;fill:#ececec;fill-opacity:1;stroke:#000000;stroke-width:0.0257485;stroke-linecap:round;stroke-linejoin:round" />
        <path
           class="Canary Islands (Spain)"
           d="m 9.5213595,12.24182 v 0.02576 l -0.07724,0.0386 -0.051513,0.06435 -0.038598,0.02576 v 0.05151 l -0.051513,0.09013 -0.012914,0.05151 -0.064355,0.07724 -0.012914,0.02576 h -0.025756 l -0.077248,0.02576 -0.012914,-0.01284 -0.012842,-0.05151 -0.038598,-0.05151 -0.012842,-0.02576 -0.025756,-0.0386 v -0.0386 l -0.051513,-0.07724 0.064355,-0.0386 0.038598,0.02576 0.077248,-0.02576 h 0.051513 l 0.064355,-0.02576 0.064355,-0.05151 v -0.02576 l 0.077247,-0.0386 h 0.077248 l 0.038599,-0.01284 z"
           id="path1584-9"
           style="opacity:1;fill:#ececec;fill-opacity:1;stroke:#000000;stroke-width:0.0257485;stroke-linecap:round;stroke-linejoin:round" />
        <path
           class="Canary Islands (Spain)"
           d="m 10.834538,12.602301 -0.0386,0.05151 -0.05151,0.01284 -0.0386,-0.01284 h -0.05151 v -0.02576 h 0.0386 l 0.07725,-0.02576 0.05151,-0.0386 0.0386,-0.0386 0.01284,-0.06436 0.01291,-0.0386 0.02576,-0.06436 0.0386,-0.05151 0.0386,-0.07724 0.02576,-0.102996 0.02576,-0.02576 0.05151,-0.01284 0.0386,0.0386 0.01291,0.06435 -0.01291,0.06436 -0.01284,0.06435 v 0.06435 l -0.01284,0.01292 -0.0386,0.09012 -0.0386,0.0386 -0.07725,0.01284 -0.09012,0.0386 z"
           id="path1586-6"
           style="opacity:1;fill:#ececec;fill-opacity:1;stroke:#000000;stroke-width:0.0257485;stroke-linecap:round;stroke-linejoin:round" />
        <path
           class="Canary Islands (Spain)"
           d="m 8.3111778,12.022955 0.038599,-0.01284 0.025756,0.0386 0.025756,0.06435 -0.025756,0.0386 0.012842,0.05151 -0.077247,0.128738 -0.012842,-0.01284 -0.012842,-0.05151 -0.051513,-0.115868 -0.012914,-0.0386 -0.012842,-0.02576 0.025756,-0.05151 0.038598,-0.02576 z"
           id="path1588-9"
           style="opacity:1;fill:#ececec;fill-opacity:1;stroke:#000000;stroke-width:0.0257485;stroke-linecap:round;stroke-linejoin:round" />
        <path
           class="Canary Islands (Spain)"
           d="m 11.413876,11.765471 v 0.05151 l -0.02576,0.06436 -0.09013,0.06435 -0.06435,0.01284 -0.05151,0.06435 -0.06436,-0.02576 v -0.01284 l 0.02576,-0.05151 v -0.05151 l 0.02576,-0.0386 0.0386,-0.02576 h 0.0386 l 0.0386,-0.0386 h 0.06435 l 0.01291,-0.01284 0.02576,-0.06435 0.02576,-0.01284 0.02576,0.02576 z"
           id="path1590-5"
           style="opacity:1;fill:#ececec;fill-opacity:1;stroke:#000000;stroke-width:0.0257485;stroke-linecap:round;stroke-linejoin:round" />
        <path
           d="m 53.551351,46.320004 0.02576,0.03862 0.06435,0.02575 v 0.03862 l -0.02576,0.02575 0.01284,0.02575 -0.0386,0.07725 0.01284,0.02575 -0.0386,0.01287 -0.02576,-0.03862 v -0.03862 l 0.02576,-0.02575 -0.02576,-0.09012 -0.01291,-0.01287 -0.01284,-0.02575 z"
           id="YT-5"
           name="Mayotte"
           style="opacity:1;fill:#ececec;fill-opacity:1;stroke:#000000;stroke-width:0.0257485;stroke-linecap:round;stroke-linejoin:round" />
      </g>
      <text
         xml:space="preserve"
         id="text5395"
         style="font-style:normal;font-weight:normal;font-size:10.5833px;line-height:1.25;font-family:sans-serif;text-align:center;white-space:pre;shape-inside:url(#rect5397);fill:#ffffff;fill-opacity:1;stroke:none;"
         transform="translate(-99.753538,-64.501546)"
         x="40.057716"
         y="0"><tspan
           x="80.917259"
           y="21.010934"><tspan
             style="font-style:normal;font-variant:normal;font-weight:bold;font-stretch:normal;font-family:'Atkinson Hyperlegible';-inkscape-font-specification:'Atkinson Hyperlegible Bold'">Seminar 1</tspan><tspan
             style="font-style:normal;font-variant:normal;font-weight:normal;font-stretch:normal;font-family:'Atkinson Hyperlegible';-inkscape-font-specification:'Atkinson Hyperlegible';text-align:center;text-anchor:middle;fill:#ffffff;fill-opacity:1">
</tspan></tspan><tspan
           x="64.984143"
           y="34.526473"><tspan
             style="font-style:normal;font-variant:normal;font-weight:normal;font-stretch:normal;font-family:'Atkinson Hyperlegible';-inkscape-font-specification:'Atkinson Hyperlegible';text-align:center;text-anchor:middle;fill:#ffffff;fill-opacity:1">26th March 2024
</tspan></tspan><tspan
           x="66.672201"
           y="48.042012"><tspan
             style="font-style:normal;font-variant:normal;font-weight:normal;font-stretch:normal;font-family:'Atkinson Hyperlegible';-inkscape-font-specification:'Atkinson Hyperlegible';text-align:center;text-anchor:middle;fill:#ffffff;fill-opacity:1">10:00-11:00 UTC</tspan></tspan></text>
      <path
         class="Angola"
         d="m -70.769016,-23.65154 0.07725,0.257485 -0.09012,0.399103 0.115867,0.386228 -0.115867,0.308982 0.05151,0.283234 -1.506293,-0.01287 -0.102997,2.639225 0.463478,0.669462 0.46347,0.514971 -1.33892,0.33473 -1.738029,-0.115868 -0.489219,-0.386228 -2.922462,0.02575 -0.102989,0.06437 -0.42485,-0.373353 -0.463478,-0.02575 -0.437721,0.141616 -0.34761,0.154492 -0.06436,-0.514971 0.115867,-0.733833 0.257485,-0.759582 0.0386,-0.347605 0.244606,-0.746708 0.180245,-0.334731 0.42485,-0.540719 0.244606,-0.373354 0.07725,-0.60509 -0.0386,-0.476348 -0.205986,-0.296108 -0.193115,-0.502096 -0.167366,-0.489223 0.0386,-0.18024 0.218865,-0.321856 -0.205986,-0.798205 -0.154495,-0.553593 -0.360481,-0.527845 0.07725,-0.154491 0.296112,-0.115869 0.218857,0.01288 0.257484,-0.09012 2.150008,0.01287 0.167366,0.605091 0.205986,0.502096 0.167366,0.27036 0.270356,0.42485 0.489227,-0.06437 0.231735,-0.115869 0.399101,0.115869 0.115868,-0.205989 0.193115,-0.476347 0.450599,-0.03862 0.0386,-0.141617 h 0.373359 l -0.06435,0.296108 0.87545,-0.01287 0.01284,0.527845 0.141617,0.308983 -0.115868,0.502096 0.05151,0.514971 0.231735,0.308982 -0.05151,0.978445 0.180236,-0.07725 0.308983,0.02575 0.4506,-0.128742 z"
         id="path850-33-2"
         style="fill:#f4a90d;fill-opacity:1;stroke:none;stroke-width:0.0257485;stroke-linecap:round;stroke-linejoin:round;filter:url(#filter7992)" />
      <path
         d="m -68.181337,-37.015024 0.450599,0.682336 0.334732,0.102994 0.193115,-0.141617 0.334725,0.0515 0.399108,-0.167366 0.180237,0.347605 0.656586,0.553594 -0.0386,0.96557 0.296105,0.115869 -0.244606,0.283233 -0.270363,0.231737 -0.283234,0.424851 -0.154487,0.386228 -0.0386,0.656587 -0.167366,0.321857 -0.01284,0.617965 -0.205986,0.231737 -0.02576,0.489222 -0.102997,0.06437 -0.07725,0.463473 0.180245,0.373354 0.01284,0.128743 -0.154488,1.326049 0.193108,0.463474 -0.128739,0.347605 0.231736,0.592216 0.437728,0.4506 0.09012,0.450599 0.205986,0.218862 -0.0386,0.141617 -0.115868,-0.03862 -0.991317,0.141617 -0.193115,0.102994 -0.218864,0.527845 0.154487,0.360479 -0.141616,0.978444 -0.115868,0.823953 0.193115,0.154492 0.502098,0.321856 0.205986,-0.154491 0.02576,0.888324 h -0.553596 l -0.283233,-0.450599 -0.257485,-0.360479 -0.553589,-0.115868 -0.154495,-0.424851 -0.450599,0.257485 -0.566467,-0.115869 -0.244614,-0.373353 -0.450592,-0.07725 -0.34761,0.01288 -0.0386,-0.257485 -0.244613,-0.01287 -0.334732,-0.0515 -0.450599,0.128742 -0.308983,-0.02575 -0.180237,0.07725 0.05151,-0.978445 -0.231736,-0.308982 -0.05151,-0.514971 0.115867,-0.502096 -0.141616,-0.308983 -0.01284,-0.527845 -0.875449,0.01287 0.06435,-0.296108 h -0.373359 l -0.0386,0.141617 -0.4506,0.03862 -0.193115,0.476347 -0.115868,0.205989 -0.399101,-0.115869 -0.231735,0.115869 -0.489227,0.06437 -0.270355,-0.42485 -0.167366,-0.27036 -0.205986,-0.502096 -0.167366,-0.605091 -2.150008,-0.01287 -0.257485,0.09012 -0.218857,-0.01288 -0.296112,0.115869 -0.102996,-0.257485 0.180244,-0.09012 0.02576,-0.36048 0.128739,-0.205988 0.257484,-0.18024 0.193115,0.09012 0.257485,-0.321857 0.399108,0.01287 0.0386,0.231737 0.270355,0.141617 0.437729,-0.51497 0.42485,-0.399103 0.180237,-0.27036 -0.01284,-0.682336 0.321853,-0.798204 0.334732,-0.424851 0.476349,-0.399102 0.09012,-0.257486 0.01284,-0.308982 0.115867,-0.283234 -0.0386,-0.476348 0.09012,-0.733833 0.141617,-0.514971 0.218857,-0.437725 0.0386,-0.502096 0.06435,-0.579342 0.283234,-0.411976 0.38623,-0.27036 0.605087,0.283233 0.463478,0.308983 0.52784,0.07725 0.553596,0.167365 0.205986,-0.502096 0.102997,-0.06437 0.334732,0.07724 0.81108,-0.411976 0.283234,0.180239 0.231735,-0.02575 0.115868,-0.205988 0.270362,-0.06437 0.540718,0.09012 0.476349,0.01288 z"
         id="CD-9-9"
         name="Democratic Republic of the Congo"
         style="fill:#e17047;fill-opacity:1;stroke:#000000;stroke-width:0.0257485;stroke-linecap:round;stroke-linejoin:round;filter:url(#filter7996)" />
    </g>
  </g>
</svg>
